fontCallback.success({"glyphs":{"S":{"x_min":37.5,"x_max":616.671875,"ha":674,"o":"m 547 876 b 334 913 466 887 470 913 b 70 673 208 913 70 820 b 270 430 70 543 162 476 b 500 206 358 391 500 365 b 326 36 500 94 436 36 b 81 233 195 36 112 94 b 37 229 65 238 50 236 b 65 18 43 122 48 86 b 313 -13 152 18 190 -13 b 616 255 481 -13 616 113 b 425 497 616 387 526 454 b 169 711 358 525 169 575 b 320 866 169 795 233 866 b 527 688 456 866 500 780 b 572 697 543 688 559 687 b 547 876 568 763 562 802 "},"¦":{"x_min":112.5,"x_max":180.5625,"ha":293,"o":"m 180 223 l 112 223 l 112 -279 l 180 -279 l 180 223 m 180 936 l 112 936 l 112 433 l 180 433 l 180 936 "},"/":{"x_min":21,"x_max":407,"ha":449,"o":"m 407 897 l 350 897 l 21 -81 l 77 -81 l 407 897 "},"❼":{"x_min":68.0625,"x_max":981.953125,"ha":1054,"o":"m 472 604 b 406 527 433 604 423 594 l 377 531 b 395 663 384 570 394 626 l 420 663 b 450 655 420 656 427 655 l 691 655 b 495 213 618 529 538 359 l 448 213 b 611 604 497 368 575 540 l 472 604 m 525 897 b 68 437 272 897 68 693 b 525 -20 68 184 272 -20 b 981 437 777 -20 981 184 b 525 897 981 690 779 897 "},"₢":{"x_min":34.4375,"x_max":583.0625,"ha":608,"o":"m 335 -22 b 540 148 435 -22 512 55 l 506 158 b 390 41 481 91 438 54 l 390 255 b 465 383 390 298 449 383 b 490 368 473 383 483 381 b 540 338 498 348 516 338 b 583 394 566 338 583 369 b 516 448 583 425 556 448 b 391 331 463 448 419 372 l 388 331 l 391 447 l 370 447 b 340 437 362 447 352 443 b 235 401 303 420 290 413 l 242 366 b 259 368 248 368 253 368 b 296 318 280 368 296 356 l 296 44 b 155 406 201 75 155 195 b 349 763 155 597 226 763 b 509 591 413 763 499 708 l 545 594 l 527 811 l 492 808 l 492 797 b 481 779 492 783 488 779 b 352 812 462 779 419 812 b 34 387 174 812 34 644 b 335 -22 34 144 151 -22 "},"y":{"x_min":20.140625,"x_max":710.421875,"ha":721,"o":"m 288 -222 b 345 -102 309 -184 327 -144 b 591 463 456 163 518 308 b 704 552 611 504 652 548 b 704 598 712 561 712 590 b 605 595 669 597 644 595 b 479 598 556 595 530 597 b 479 552 470 590 470 561 b 545 490 522 548 566 540 l 406 172 b 373 173 397 148 386 145 l 251 462 b 295 552 226 520 211 545 b 295 598 304 561 304 590 b 138 595 244 597 188 595 b 26 598 91 595 54 597 b 26 552 18 590 18 561 b 136 448 87 547 98 536 l 293 83 b 312 -47 305 54 326 -8 b 258 -175 297 -94 279 -131 b 188 -215 243 -202 223 -215 b 148 -211 169 -215 163 -211 b 87 -270 108 -211 87 -252 b 152 -322 87 -300 115 -322 b 287 -222 181 -322 237 -311 l 288 -222 "},"Á":{"x_min":3.46875,"x_max":957.640625,"ha":965,"o":"m 215 109 l 291 311 b 340 334 298 329 306 334 l 629 334 l 713 99 b 611 43 733 41 676 47 b 611 -2 602 34 602 5 b 793 0 662 -1 738 0 b 951 -2 850 0 900 -1 b 951 43 959 5 959 34 b 826 119 897 47 851 47 l 541 872 b 504 913 530 898 523 913 b 456 863 483 913 472 901 l 148 141 b 9 43 111 55 69 47 b 9 -2 1 34 1 5 b 133 0 61 -1 79 0 b 311 -2 190 0 259 -1 b 311 43 319 5 319 34 b 215 109 258 45 193 51 m 365 393 b 329 411 333 393 323 395 l 469 763 l 472 763 l 606 393 l 365 393 m 579 1138 l 406 1019 b 386 990 388 1006 386 999 b 406 969 386 979 394 969 b 465 986 419 969 436 973 l 665 1066 b 579 1138 647 1095 618 1119 "},"g":{"x_min":45.1875,"x_max":667.953125,"ha":694,"o":"m 616 537 b 667 590 642 537 667 562 b 604 641 667 619 641 641 b 465 571 567 641 501 618 b 320 610 448 582 402 610 b 84 398 197 610 84 526 b 156 243 84 323 117 280 b 95 102 117 209 95 149 b 158 -4 95 52 122 13 b 45 -172 83 -48 45 -112 b 265 -330 45 -293 158 -330 b 655 -90 452 -330 655 -240 b 594 21 655 -46 634 -11 b 391 67 540 66 442 67 b 298 60 366 67 331 65 b 256 58 277 59 263 58 b 167 137 216 58 167 77 b 192 218 167 165 176 194 b 319 188 226 198 265 188 b 554 401 441 188 554 265 b 494 546 554 466 534 504 b 549 579 504 560 531 579 b 577 562 559 579 569 575 b 616 537 583 551 601 537 m 183 -14 b 238 -21 198 -18 220 -21 b 340 -17 281 -21 320 -17 b 508 -40 409 -17 467 -18 b 579 -126 562 -71 579 -90 b 306 -279 579 -226 431 -279 b 141 -144 257 -279 141 -239 b 183 -14 141 -97 143 -62 m 442 387 b 326 232 442 258 377 232 b 197 419 209 232 197 330 b 308 566 197 516 231 566 b 442 387 395 566 442 503 "},"²":{"x_min":62.59375,"x_max":375,"ha":426,"o":"m 101 815 b 138 844 115 815 134 819 b 141 884 140 854 136 872 b 208 913 148 901 165 913 b 277 838 233 913 277 904 b 182 681 277 763 244 731 b 62 505 115 630 62 572 l 348 505 b 375 636 359 541 368 586 b 341 643 366 640 355 643 b 263 550 326 604 306 550 l 148 550 b 240 675 161 595 182 633 b 363 840 318 730 363 776 b 213 955 363 929 283 955 b 65 848 104 955 65 884 b 101 815 65 830 84 815 "},"ë":{"x_min":51.015625,"x_max":564.90625,"ha":621,"o":"m 535 129 b 363 54 484 76 444 54 b 212 154 313 54 255 83 b 167 344 184 200 167 263 l 537 341 b 563 365 553 341 563 350 b 328 606 563 481 521 606 b 51 280 207 606 51 491 b 116 75 51 202 70 127 b 328 -13 163 19 228 -13 b 564 106 434 -13 509 34 b 535 129 560 120 552 127 m 171 391 b 328 561 198 548 295 561 b 444 415 381 561 444 531 b 423 395 444 402 438 395 l 171 391 m 371 798 b 437 733 371 762 401 733 b 502 798 473 733 502 762 b 437 865 502 834 473 865 b 371 798 401 865 371 834 m 137 798 b 202 733 137 762 166 733 b 267 798 238 733 267 762 b 202 865 267 834 238 865 b 137 798 166 865 137 834 "},"Î":{"x_min":20.140625,"x_max":392.359375,"ha":413,"o":"m 265 169 l 265 726 b 386 852 265 841 288 848 b 386 898 394 860 394 889 b 205 895 318 896 276 895 b 26 898 136 895 95 896 b 26 852 18 889 18 860 b 147 726 123 848 147 841 l 147 169 b 26 42 147 53 123 46 b 26 -3 18 34 18 5 b 206 0 94 -1 136 0 b 386 -3 276 0 316 -1 b 386 42 394 5 394 34 b 265 169 288 46 265 53 m 229 1121 b 175 1121 206 1131 194 1133 b 34 987 131 1074 86 1026 b 54 958 37 974 41 966 b 202 1042 106 981 151 1005 b 350 958 248 1008 295 983 b 372 987 362 962 368 973 b 229 1121 322 1024 270 1071 "},"e":{"x_min":51.390625,"x_max":565.28125,"ha":621,"o":"m 536 129 b 363 54 484 76 444 54 b 212 154 313 54 255 83 b 168 344 184 200 168 263 l 537 341 b 563 365 554 341 563 350 b 329 606 563 481 522 606 b 51 280 208 606 51 491 b 116 75 51 202 70 127 b 329 -13 163 19 229 -13 b 565 106 434 -13 509 34 b 536 129 561 120 552 127 m 172 391 b 329 561 198 548 295 561 b 444 415 381 561 444 531 b 423 395 444 402 438 395 l 172 391 "},"Ã":{"x_min":3.578125,"x_max":957.75,"ha":965,"o":"m 215 109 l 291 311 b 340 334 298 329 307 334 l 629 334 l 714 99 b 611 43 733 41 676 47 b 611 -2 602 34 602 5 b 793 0 662 -1 739 0 b 951 -2 850 0 900 -1 b 951 43 959 5 959 34 b 826 119 897 47 851 47 l 541 872 b 504 914 530 898 523 914 b 457 863 483 914 472 901 l 148 141 b 9 43 111 55 69 47 b 9 -2 1 34 1 5 b 133 0 61 -1 79 0 b 311 -2 190 0 259 -1 b 311 43 319 5 319 34 b 215 109 258 45 193 51 m 365 393 b 329 411 333 393 323 395 l 469 763 l 472 763 l 607 393 l 365 393 m 586 1037 b 514 1063 559 1037 536 1047 b 414 1111 486 1083 455 1111 b 302 975 354 1111 322 1056 b 340 968 311 966 325 965 b 404 1034 354 1013 368 1034 b 479 1008 427 1034 454 1023 b 568 964 508 988 537 964 b 689 1101 632 964 672 1018 b 651 1109 680 1106 666 1111 b 586 1037 632 1051 616 1037 "},"J":{"x_min":-94.4375,"x_max":427.078125,"ha":378,"o":"m 313 726 b 420 852 313 841 337 848 b 420 898 429 861 429 890 b 254 895 352 897 319 895 b 61 898 179 895 130 897 b 61 852 52 890 52 861 b 195 726 172 848 195 841 l 195 112 b 77 -176 195 -137 123 -176 b 29 -151 58 -176 38 -165 b -33 -104 15 -133 9 -104 b -94 -163 -52 -104 -94 -133 b 9 -238 -94 -213 -20 -238 b 172 -179 72 -238 115 -227 b 313 143 231 -127 313 -55 l 313 726 "},"»":{"x_min":63.890625,"x_max":580.5625,"ha":644,"o":"m 245 298 b 63 65 187 241 136 175 l 98 31 b 325 265 186 137 240 197 b 352 287 325 265 343 280 l 352 309 b 325 331 343 316 325 331 b 98 565 240 400 186 459 l 63 531 b 245 298 136 422 187 355 m 473 298 b 291 65 415 241 363 175 l 326 31 b 552 265 413 137 468 197 b 580 287 552 265 570 280 l 580 309 b 552 331 570 316 552 331 b 326 565 468 400 413 459 l 291 531 b 473 298 363 422 415 355 "},"₨":{"x_min":22,"x_max":1034.5,"ha":1090,"o":"m 558 598 b 499 752 558 661 538 709 b 295 816 444 808 366 816 b 38 801 163 816 65 808 l 38 777 b 48 769 38 772 41 769 l 85 772 b 94 773 88 773 91 773 b 131 716 127 773 131 751 l 131 88 b 63 33 131 54 115 33 l 30 33 b 22 23 24 33 22 29 l 22 1 l 23 0 b 184 1 23 0 140 1 b 342 0 233 1 342 0 l 344 1 l 344 23 b 334 33 344 29 340 33 l 301 33 b 233 88 252 33 233 50 l 233 352 b 323 337 317 352 319 345 l 440 99 b 584 -6 467 39 519 -6 b 634 0 602 -6 622 -3 l 628 25 b 524 120 574 25 558 48 l 405 376 b 558 598 453 395 558 465 m 448 595 b 412 465 448 543 434 500 b 266 401 385 422 351 401 l 233 401 l 233 770 b 308 780 258 777 274 780 b 448 595 376 780 448 744 m 663 176 l 672 0 b 701 1 684 1 694 1 b 726 0 709 1 717 1 b 841 -11 758 -7 797 -11 b 1034 141 910 -11 1034 18 b 847 326 1034 243 948 280 b 749 423 780 355 749 370 b 852 516 749 494 803 516 b 992 368 878 516 955 501 l 1022 369 l 1006 519 b 852 552 983 533 916 552 b 672 404 752 552 672 490 b 816 248 672 311 724 287 b 949 113 919 204 949 168 b 837 20 949 50 884 20 b 738 56 790 20 752 44 b 692 177 706 88 694 148 l 663 176 "},"©":{"x_min":47.21875,"x_max":844.453125,"ha":892,"o":"m 445 772 b 788 425 638 772 788 618 b 445 76 788 231 637 76 b 102 425 251 76 102 233 b 445 772 102 618 251 772 m 445 31 b 844 425 662 31 844 208 b 445 816 844 641 662 816 b 47 425 229 816 47 641 b 445 31 47 209 227 31 m 609 300 b 583 320 602 308 595 316 b 458 251 568 298 529 251 b 315 431 363 251 315 330 b 443 602 315 568 387 602 b 575 500 522 602 551 563 b 602 505 586 500 595 501 b 588 613 604 538 602 569 b 448 634 561 616 545 634 b 229 418 326 634 229 534 b 445 211 229 308 322 211 b 609 300 522 211 581 256 "},"ò":{"x_min":56.9375,"x_max":643.0625,"ha":700,"o":"m 336 563 b 523 252 455 563 523 456 b 373 31 523 69 438 31 b 176 316 229 31 176 209 b 336 563 176 437 219 563 m 56 284 b 348 -13 56 143 152 -13 b 643 297 555 -13 643 158 b 351 609 643 441 566 609 b 56 284 163 609 56 461 m 311 931 b 290 934 305 933 297 934 b 200 902 243 934 211 911 l 197 887 l 355 736 b 395 708 377 715 387 708 b 416 723 406 708 416 716 b 408 756 416 733 415 743 l 311 931 "},"^":{"x_min":156,"x_max":566,"ha":719,"o":"m 360 823 l 503 480 l 566 480 l 390 903 l 332 903 l 156 480 l 218 480 l 360 823 "},"«":{"x_min":63.890625,"x_max":580.5625,"ha":644,"o":"m 398 298 b 580 531 456 355 508 422 l 545 565 b 319 331 458 459 404 400 b 291 309 319 331 301 316 l 291 287 b 319 265 301 280 319 265 b 545 31 404 197 458 137 l 580 65 b 398 298 508 175 456 241 m 170 298 b 352 531 229 355 280 422 l 318 565 b 91 331 230 459 176 400 b 63 309 91 331 73 316 l 63 287 b 91 265 73 280 91 265 b 318 31 176 197 230 137 l 352 65 b 170 298 280 175 229 241 "},"D":{"x_min":20.140625,"x_max":913.890625,"ha":974,"o":"m 205 895 b 26 898 136 895 95 897 b 26 852 18 890 18 861 b 147 726 123 848 147 841 l 147 169 b 26 43 147 54 123 47 b 26 -2 18 34 18 5 b 206 0 94 -1 136 0 b 459 -2 258 0 316 -2 b 913 427 655 -2 913 86 b 434 898 913 686 701 898 b 205 895 345 898 259 895 m 265 115 l 265 783 b 381 851 265 831 313 851 b 780 394 681 851 780 608 b 416 44 780 113 612 44 b 265 115 280 44 265 70 "},"ÿ":{"x_min":19.75,"x_max":710.03125,"ha":721,"o":"m 288 -222 b 345 -102 309 -184 327 -144 b 591 463 456 163 517 308 b 703 552 610 504 652 548 b 703 598 712 561 712 590 b 605 595 669 597 644 595 b 478 598 556 595 530 597 b 478 552 470 590 470 561 b 545 490 521 548 566 540 l 406 172 b 373 173 396 148 385 145 l 251 462 b 295 552 226 520 210 545 b 295 598 303 561 303 590 b 138 595 244 597 188 595 b 26 598 91 595 53 597 b 26 552 17 590 17 561 b 135 448 87 547 98 536 l 292 83 b 312 -47 305 54 326 -8 b 257 -175 296 -94 278 -131 b 188 -215 242 -202 223 -215 b 148 -211 169 -215 163 -211 b 87 -270 107 -211 87 -252 b 152 -322 87 -300 114 -322 b 287 -222 181 -322 237 -311 l 288 -222 m 427 798 b 492 733 427 762 456 733 b 557 798 528 733 557 762 b 492 865 557 834 528 865 b 427 798 456 865 427 834 m 192 798 b 257 733 192 762 221 733 b 323 798 294 733 323 762 b 257 865 323 834 294 865 b 192 798 221 865 192 834 "},"✝":{"x_min":65.28125,"x_max":680.5625,"ha":704,"o":"m 427 16 b 411 538 427 61 412 188 b 651 531 555 538 627 531 b 680 566 673 531 680 538 b 650 613 680 595 672 613 b 411 606 619 613 554 608 b 427 927 411 793 427 895 b 397 958 427 950 425 958 l 348 958 b 318 927 325 958 318 948 b 334 606 318 891 333 790 b 95 613 190 608 119 613 b 65 566 73 613 65 594 b 97 531 65 536 73 531 b 336 538 126 531 191 538 b 318 16 333 219 318 61 b 348 -13 318 -8 322 -13 l 397 -13 b 427 16 420 -13 427 -8 "},"í":{"x_min":35.421875,"x_max":357.640625,"ha":376,"o":"m 251 169 l 251 445 b 256 604 251 515 256 604 b 238 613 256 609 250 613 b 48 573 198 598 144 586 b 51 534 45 565 48 543 b 141 440 126 526 141 519 l 141 169 b 41 43 141 54 126 50 b 41 -2 33 34 33 5 b 197 0 100 -1 136 0 b 351 -2 256 0 291 -1 b 351 43 359 5 359 34 b 251 169 266 48 251 54 m 226 931 l 120 766 b 105 727 109 748 105 743 b 125 709 105 718 115 709 b 166 736 134 709 145 715 l 326 887 l 322 902 b 245 934 290 933 254 934 b 226 931 238 934 230 933 "},"w":{"x_min":9.03125,"x_max":1027.078125,"ha":1038,"o":"m 281 552 b 281 598 290 561 290 590 b 137 595 230 597 187 595 b 15 598 84 595 51 597 b 15 552 6 590 6 561 b 125 459 80 545 95 531 l 306 11 b 340 -16 315 -8 326 -16 b 373 13 352 -16 363 -8 l 513 355 l 656 11 b 690 -16 665 -8 676 -16 b 722 12 702 -16 713 -8 l 902 452 b 1020 552 926 508 950 548 b 1020 598 1029 561 1029 590 b 923 595 986 597 973 595 b 779 598 870 595 830 597 b 779 552 770 590 770 561 b 848 458 883 547 868 506 l 733 169 b 701 163 719 134 718 123 l 581 468 b 633 552 556 533 559 547 b 633 598 641 561 641 590 b 494 595 581 597 543 595 b 372 598 445 595 423 597 b 372 552 363 590 363 561 b 477 444 443 547 452 505 l 487 422 l 390 176 b 350 173 372 130 368 127 l 238 459 b 281 552 213 526 215 548 "},"$":{"x_min":58,"x_max":555.4375,"ha":611,"o":"m 275 473 b 152 608 220 498 152 543 b 275 751 152 691 208 743 l 275 473 m 322 347 b 455 176 377 326 455 286 b 322 32 455 71 374 37 l 322 347 m 127 16 b 275 -13 154 16 194 -10 l 275 -112 l 322 -112 l 322 -13 b 555 216 537 1 555 171 b 322 454 555 357 399 423 l 322 750 b 463 604 395 741 436 693 l 470 579 l 511 584 b 483 783 499 653 487 721 b 322 793 430 783 388 791 l 322 871 l 275 871 l 275 793 b 63 596 172 782 63 715 b 275 366 63 458 191 403 l 275 33 b 98 207 182 47 119 123 l 58 203 b 80 1 69 125 80 53 b 127 16 109 1 105 16 "},"\\":{"x_min":15.28125,"x_max":395.828125,"ha":399,"o":"m 76 969 l 15 969 l 334 -66 l 395 -66 l 76 969 "},"Ì":{"x_min":20.140625,"x_max":392.359375,"ha":413,"o":"m 265 169 l 265 726 b 386 852 265 841 288 848 b 386 898 394 861 394 890 b 205 895 318 897 276 895 b 26 898 136 895 95 897 b 26 852 18 890 18 861 b 147 726 123 848 147 841 l 147 169 b 26 43 147 54 123 47 b 26 -2 18 34 18 5 b 206 0 94 -1 136 0 b 386 -2 276 0 316 -1 b 386 43 394 5 394 34 b 265 169 288 47 265 54 m 137 1134 b 31 1072 88 1118 56 1095 l 245 984 b 305 968 275 972 294 968 b 326 988 316 968 326 977 b 305 1018 326 998 320 1006 l 137 1134 "},"µ":{"x_min":61.109375,"x_max":670.828125,"ha":675,"o":"m 447 83 l 450 83 b 555 -13 454 44 475 -13 b 670 48 623 -13 670 41 b 655 69 670 58 661 69 b 609 47 647 69 643 47 b 554 168 555 47 554 104 l 554 610 b 450 596 519 605 483 596 l 450 148 b 275 48 419 103 347 48 b 179 204 201 48 179 118 l 179 476 b 175 610 179 521 175 610 b 61 596 136 605 93 596 b 75 447 61 596 75 486 l 75 186 b 87 -10 75 105 87 35 b 65 -234 87 -98 65 -163 b 140 -324 65 -291 118 -324 b 197 -241 172 -324 197 -298 b 152 5 197 -181 152 -84 b 169 18 152 12 161 18 b 255 -13 184 0 219 -13 b 447 83 340 -13 395 22 "},"Ç":{"x_min":51.4375,"x_max":848.671875,"ha":897,"o":"m 509 -133 b 555 -182 541 -133 555 -152 b 484 -237 555 -218 526 -237 b 404 -218 457 -237 441 -232 b 390 -254 394 -227 390 -237 b 493 -277 425 -269 448 -277 b 641 -175 577 -277 641 -234 b 543 -88 641 -122 598 -88 b 507 -93 530 -88 518 -90 l 536 -12 b 848 173 655 0 763 62 b 816 194 841 186 832 194 b 494 42 718 86 623 42 b 177 463 279 42 177 261 b 259 738 177 583 208 676 b 482 862 329 823 409 862 b 786 629 673 862 750 748 b 832 636 802 623 815 627 b 801 851 825 708 813 774 b 497 913 730 858 668 913 b 198 795 379 913 280 870 b 51 437 105 711 51 581 b 487 -13 51 215 194 -11 l 438 -133 l 447 -141 b 509 -133 469 -134 483 -133 "},"❺":{"x_min":68.0625,"x_max":981.953125,"ha":1054,"o":"m 590 347 b 487 469 590 387 587 469 b 408 450 456 469 427 461 l 400 455 l 430 652 l 643 652 l 636 606 l 636 605 l 462 605 l 445 493 b 512 506 456 500 491 506 b 669 359 619 506 669 434 b 505 202 669 277 602 202 b 376 255 458 202 376 222 b 406 284 376 272 391 284 b 445 263 425 284 434 275 b 504 237 458 251 475 237 b 590 347 566 237 590 288 m 525 897 b 68 437 272 897 68 693 b 525 -20 68 184 272 -20 b 981 437 777 -20 981 184 b 525 897 981 690 779 897 "},"✘":{"x_min":69.4375,"x_max":794.453125,"ha":864,"o":"m 306 754 b 275 709 295 754 286 727 b 238 736 256 722 248 736 b 202 673 225 736 202 698 b 295 351 202 615 259 438 b 75 144 265 322 75 175 b 90 108 75 131 84 122 b 69 69 83 95 69 77 b 108 18 69 59 87 18 b 127 23 113 18 122 20 b 150 -25 127 18 136 -25 b 359 200 168 -25 188 31 b 463 -6 413 65 433 -6 b 506 19 479 -6 490 9 b 540 1 519 12 530 1 b 581 56 561 1 576 41 b 631 108 627 56 631 93 b 498 351 631 137 591 156 b 794 643 733 611 794 593 b 752 681 794 659 779 679 b 718 748 752 681 752 748 b 431 484 702 748 543 593 b 306 754 323 686 345 754 "},"-":{"x_min":55.5625,"x_max":413.890625,"ha":469,"o":"m 376 309 b 413 365 394 309 413 348 b 394 393 413 379 408 393 l 90 393 b 55 336 73 393 55 361 b 76 309 55 322 63 309 l 376 309 "},"Q":{"x_min":51.390625,"x_max":945.828125,"ha":975,"o":"m 193 -212 l 247 -240 b 348 -158 275 -176 327 -158 b 745 -290 477 -158 565 -290 b 945 -176 833 -290 891 -253 l 922 -159 b 801 -210 891 -197 841 -210 b 413 -96 679 -210 566 -96 b 386 -99 405 -96 395 -98 b 566 -8 454 -49 522 -20 b 925 457 786 28 925 208 b 477 914 925 732 720 914 b 51 430 229 914 51 703 b 429 -10 51 178 216 14 b 193 -212 329 -63 238 -145 m 459 866 b 791 430 648 866 791 719 b 513 33 791 182 672 33 b 184 454 347 33 184 187 b 459 866 184 746 333 866 "},"❿":{"x_min":68.0625,"x_max":981.953125,"ha":1054,"o":"m 672 209 b 505 437 575 209 505 319 b 676 668 505 568 580 668 b 844 444 755 668 844 611 b 672 209 844 279 752 209 m 676 634 b 586 430 588 634 586 504 b 673 244 586 351 598 244 b 763 458 754 244 763 350 b 676 634 763 533 743 634 m 327 573 b 248 551 311 573 269 561 l 236 588 b 397 666 301 612 337 629 l 419 666 l 419 304 b 455 252 419 273 436 252 l 493 252 b 501 245 497 252 501 251 l 501 216 b 381 218 501 216 429 218 b 247 216 329 218 247 216 l 247 245 b 256 252 247 248 251 252 l 306 252 b 348 304 329 252 348 273 l 348 515 b 327 573 348 559 345 573 m 525 897 b 68 437 272 897 68 693 b 525 -20 68 184 272 -20 b 981 437 777 -20 981 184 b 525 897 981 690 779 897 "},"M":{"x_min":21.53125,"x_max":1138.203125,"ha":1165,"o":"m 919 161 b 831 43 926 48 922 47 b 831 -2 823 34 823 5 b 980 0 897 -1 938 0 b 1131 -2 1022 0 1084 -1 b 1131 43 1140 5 1140 34 b 1025 168 1037 47 1033 52 l 983 752 b 1079 852 977 827 984 847 b 1079 898 1087 861 1087 890 l 897 895 l 602 191 b 590 172 597 177 593 172 b 579 190 586 172 584 177 l 294 895 l 93 898 b 93 852 84 890 84 861 b 187 740 188 847 197 844 l 130 168 b 27 43 123 84 106 50 b 27 -2 19 34 19 5 b 147 0 69 -1 113 0 b 277 -2 180 0 236 -1 b 277 43 286 5 286 34 b 186 170 186 50 177 91 l 238 727 l 241 727 l 529 6 b 550 -8 531 -4 541 -8 b 569 6 558 -8 563 -4 l 881 741 l 884 741 l 919 161 "},"C":{"x_min":51.4375,"x_max":848.671875,"ha":897,"o":"m 495 -13 b 848 173 630 -13 754 50 b 816 194 841 186 832 194 b 494 43 718 86 623 43 b 177 463 279 43 177 261 b 259 738 177 583 208 676 b 482 862 329 823 409 862 b 786 629 673 862 750 748 b 832 636 802 623 815 627 b 801 851 825 708 813 775 b 497 913 730 858 668 913 b 198 795 379 913 280 870 b 51 437 105 711 51 581 b 495 -13 51 213 197 -13 "},"❶":{"x_min":68.0625,"x_max":981.953125,"ha":1054,"o":"m 481 568 b 402 547 463 568 422 554 l 388 583 b 550 661 454 608 490 622 l 573 661 l 573 298 b 608 247 573 266 588 247 l 647 247 b 655 240 651 247 655 245 l 655 211 b 536 212 655 211 581 212 b 400 211 483 212 400 211 l 400 240 b 409 247 400 243 405 247 l 459 247 b 501 298 481 247 501 266 l 501 508 b 481 568 501 554 498 568 m 525 897 b 68 437 272 897 68 693 b 525 -20 68 184 272 -20 b 981 437 777 -20 981 184 b 525 897 981 690 779 897 "},"!":{"x_min":126.390625,"x_max":273.609375,"ha":400,"o":"m 126 59 b 200 -13 126 19 159 -13 b 273 59 240 -13 273 19 b 200 133 273 100 240 133 b 126 59 159 133 126 100 m 200 913 b 126 812 166 913 126 887 b 158 544 126 715 145 666 b 180 281 169 436 177 311 b 200 263 181 273 186 263 b 219 291 213 263 218 276 b 240 544 222 311 222 394 b 273 812 254 663 273 722 b 200 913 273 887 233 913 "},"ç":{"x_min":51.390625,"x_max":552.78125,"ha":588,"o":"m 316 -133 b 362 -182 348 -133 362 -152 b 291 -237 362 -218 333 -237 b 211 -218 263 -237 248 -232 b 197 -254 201 -227 197 -237 b 300 -277 231 -269 255 -277 b 448 -175 384 -277 448 -234 b 350 -88 448 -122 405 -88 b 313 -93 337 -88 325 -90 l 343 -13 b 552 126 419 -11 487 19 b 523 145 547 138 536 144 b 356 54 476 84 416 54 b 170 319 255 54 170 156 b 329 563 170 472 237 563 b 427 466 411 563 422 515 b 480 416 431 429 451 416 b 548 477 509 416 548 434 b 336 609 548 554 469 609 b 51 288 198 609 51 486 b 295 -13 51 119 138 0 l 245 -133 l 254 -141 b 316 -133 276 -134 290 -133 "},"È":{"x_min":7.875,"x_max":723,"ha":763,"o":"m 379 501 l 253 501 l 253 778 b 303 840 253 812 269 840 l 449 840 b 606 688 553 840 575 784 b 652 695 622 685 638 688 b 621 897 645 752 624 885 b 615 901 621 899 620 901 b 547 895 592 897 581 895 l 193 895 b 14 898 193 895 83 897 b 14 852 5 890 5 860 b 134 726 111 848 134 841 l 134 169 b 14 42 134 53 111 47 b 14 -3 5 34 5 5 b 194 0 82 -1 194 0 l 493 0 b 671 -3 560 0 671 -3 b 723 228 691 66 711 158 b 674 235 707 237 692 240 b 492 53 646 135 597 53 l 303 53 b 253 113 272 53 253 76 l 253 448 l 379 448 b 506 353 497 448 501 416 b 551 353 514 345 543 345 b 549 476 550 402 549 428 b 551 595 549 523 550 553 b 506 595 543 603 514 603 b 379 501 501 519 497 501 m 340 1134 b 234 1072 291 1117 259 1095 l 449 984 b 508 967 478 972 497 967 b 529 988 519 967 529 977 b 508 1017 529 998 524 1006 l 340 1134 "},"{":{"x_min":47,"x_max":350.46875,"ha":385,"o":"m 247 780 b 344 948 247 906 291 933 b 344 981 352 956 352 973 b 147 769 203 977 147 929 l 147 513 b 47 352 147 444 124 375 l 47 331 b 147 168 122 313 147 252 l 147 -68 b 344 -294 147 -248 202 -291 b 344 -261 352 -286 352 -269 b 247 -88 283 -261 247 -188 l 247 131 b 153 343 247 250 234 308 b 247 536 222 372 247 409 l 247 780 "},"X":{"x_min":4.171875,"x_max":905.5625,"ha":910,"o":"m 18 868 b 40 858 18 862 26 859 b 163 762 63 854 106 843 l 363 477 b 383 436 376 462 383 450 b 369 404 383 427 377 415 l 179 144 b 19 37 148 102 100 41 b 4 27 11 36 4 34 l 4 0 l 5 -2 b 122 0 47 -1 80 0 b 277 -2 176 0 212 -1 l 281 0 l 281 27 b 273 37 281 31 280 36 l 247 40 b 226 106 191 45 202 73 l 409 358 b 430 377 418 369 426 377 b 450 362 436 377 441 373 l 633 101 b 615 40 666 54 670 45 l 587 37 b 579 27 581 36 579 33 l 579 0 l 583 -2 b 756 0 648 -1 725 0 b 902 -2 788 0 847 -1 l 905 0 l 905 27 b 895 37 905 31 902 36 b 748 141 833 41 786 87 l 534 433 b 512 479 520 451 512 465 b 530 520 512 491 518 502 l 712 766 b 865 858 750 816 780 854 b 877 868 876 858 877 863 l 877 895 l 873 898 b 738 895 818 896 770 895 b 601 898 706 895 656 896 l 598 895 l 598 868 b 608 858 598 861 602 858 l 650 855 b 658 794 690 852 683 829 l 479 551 b 461 534 470 540 465 534 b 444 550 456 534 451 540 l 279 794 b 286 855 251 831 240 852 l 330 858 b 337 868 333 858 337 861 l 337 894 b 334 898 336 894 334 898 b 165 895 269 896 198 895 b 22 898 131 895 77 896 l 18 894 l 18 868 "},"ô":{"x_min":56.5625,"x_max":643.4375,"ha":700,"o":"m 336 563 b 524 252 455 563 524 456 b 373 31 524 69 439 31 b 176 316 228 31 176 209 b 336 563 176 437 219 563 m 56 284 b 348 -13 56 143 152 -13 b 643 297 555 -13 643 158 b 351 609 643 441 566 609 b 56 284 163 609 56 461 m 372 916 b 327 916 356 920 341 919 b 173 722 287 852 223 777 b 203 698 181 709 191 701 b 348 813 258 729 304 769 b 491 698 390 770 439 731 b 524 722 504 700 517 712 b 372 916 473 777 412 851 "},"¼":{"x_min":90.21875,"x_max":877.71875,"ha":917,"o":"m 183 793 b 202 736 199 793 202 780 l 202 555 b 104 478 202 485 159 480 b 104 437 97 466 98 446 b 237 439 145 439 187 439 b 354 437 283 439 312 439 b 354 478 359 447 359 466 b 277 555 306 480 277 485 l 277 887 b 252 887 269 894 259 890 b 90 810 191 850 155 833 b 104 772 90 793 93 780 b 183 793 138 785 165 793 m 733 -8 b 659 -71 733 -64 715 -69 b 659 -112 652 -83 654 -103 b 765 -110 701 -110 715 -110 b 870 -112 806 -110 829 -110 b 870 -71 876 -102 876 -83 b 799 -8 823 -69 799 -64 l 799 25 l 869 25 l 877 72 l 799 72 l 799 190 b 780 204 799 203 788 204 b 744 176 770 204 754 189 b 733 151 741 172 733 160 l 733 72 l 605 72 b 786 330 636 119 723 235 l 742 344 l 529 41 l 534 25 l 733 25 l 733 -8 m 773 835 l 136 -74 l 194 -85 l 830 823 l 773 835 "},"#":{"x_min":34.71875,"x_max":576.390625,"ha":611,"o":"m 440 473 l 565 473 l 576 543 l 450 543 l 487 777 l 437 777 l 401 543 l 251 543 l 290 777 l 240 777 l 202 543 l 80 543 l 69 473 l 191 473 l 168 322 l 44 322 l 34 252 l 156 252 l 119 18 l 168 18 l 206 252 l 354 252 l 318 18 l 368 18 l 406 252 l 530 252 l 540 322 l 415 322 l 440 473 m 366 322 l 216 322 l 241 473 l 390 473 l 366 322 "},"Ê":{"x_min":7.859375,"x_max":723,"ha":763,"o":"m 379 501 l 253 501 l 253 778 b 303 839 253 812 269 839 l 449 839 b 606 688 553 839 575 784 b 652 695 622 685 638 688 b 621 896 645 752 624 885 b 615 901 621 899 620 901 b 547 895 592 896 581 895 l 193 895 b 14 898 193 895 83 896 b 14 852 5 889 5 860 b 134 726 111 848 134 841 l 134 169 b 14 42 134 53 111 47 b 14 -3 5 34 5 5 b 194 0 82 -1 194 0 l 493 0 b 671 -3 560 0 671 -3 b 723 228 691 66 711 158 b 674 235 707 237 692 240 b 492 53 646 135 597 53 l 303 53 b 253 113 272 53 253 76 l 253 448 l 379 448 b 506 353 497 448 501 416 b 551 353 514 345 543 345 b 549 476 550 402 549 428 b 551 595 549 523 550 553 b 506 595 543 603 514 603 b 379 501 501 519 497 501 m 437 1121 b 383 1121 415 1131 403 1133 b 243 987 340 1074 294 1026 b 262 958 246 974 250 966 b 411 1042 315 981 360 1005 b 558 958 457 1008 504 983 b 581 987 571 962 576 973 b 437 1121 531 1024 479 1071 "},")":{"x_min":29.171875,"x_max":352.78125,"ha":414,"o":"m 352 350 b 58 983 352 412 347 733 b 29 959 44 980 33 970 b 237 350 75 906 237 715 b 29 -256 237 -15 73 -206 b 58 -281 33 -272 41 -281 b 352 350 223 -140 352 91 "},"Å":{"x_min":3.46875,"x_max":957.640625,"ha":965,"o":"m 498 1065 b 565 991 540 1065 565 1034 b 498 918 565 952 541 918 b 431 991 455 918 431 952 b 498 1065 431 1033 455 1065 m 215 109 l 291 311 b 340 334 298 329 306 334 l 629 334 l 713 99 b 611 43 733 41 676 47 b 611 -2 602 34 602 5 b 793 0 662 -1 738 0 b 951 -2 850 0 900 -1 b 951 43 959 5 959 34 b 826 119 897 47 851 47 l 541 872 l 537 879 b 620 991 584 895 620 941 b 498 1109 620 1056 562 1109 b 376 991 434 1109 376 1055 b 463 877 376 938 413 893 b 456 863 461 873 458 869 l 148 141 b 9 43 111 55 69 47 b 9 -2 1 34 1 5 b 133 0 61 -1 79 0 b 311 -2 190 0 259 -1 b 311 43 319 5 319 34 b 215 109 258 45 193 51 m 365 393 b 329 411 333 393 323 395 l 469 763 l 472 763 l 606 393 l 365 393 "},"ø":{"x_min":52.5625,"x_max":643.09375,"ha":700,"o":"m 493 445 b 523 252 512 397 523 331 b 373 31 523 69 439 31 b 226 122 305 31 258 69 l 493 445 m 336 563 b 465 497 390 563 433 541 l 201 176 b 176 316 183 225 176 275 b 336 563 176 437 219 563 m 575 630 l 518 562 b 351 609 476 591 420 609 b 56 284 163 609 56 461 b 124 86 56 215 78 141 l 52 -2 b 94 -38 55 -23 72 -38 l 163 47 b 348 -13 211 9 272 -13 b 643 297 555 -13 643 158 b 559 527 643 377 618 465 l 618 598 b 575 630 612 616 598 630 "},"â":{"x_min":49.828125,"x_max":631.796875,"ha":635,"o":"m 406 66 b 513 -13 415 37 438 -13 b 631 48 581 -13 631 41 b 613 72 631 58 619 72 b 570 50 605 72 599 50 b 515 168 516 50 515 104 l 515 375 b 305 609 515 572 406 609 b 76 455 191 609 76 530 b 124 406 76 422 92 406 b 185 452 165 406 185 434 b 181 477 185 462 184 472 b 179 505 180 481 179 490 b 294 563 179 548 241 563 b 406 383 341 563 406 540 b 398 366 406 373 402 368 l 279 337 b 49 136 145 304 49 230 b 224 -13 49 26 127 -13 b 376 44 288 -13 315 -2 l 404 66 l 406 66 m 406 323 l 406 138 b 387 102 406 120 398 111 b 265 43 351 73 304 43 b 165 141 195 43 165 98 b 297 294 165 204 194 266 l 406 323 m 320 916 b 276 916 305 920 290 919 b 122 722 235 852 172 777 b 152 698 130 709 140 701 b 297 813 206 729 252 769 b 440 698 338 770 387 731 b 472 722 452 700 465 712 b 320 916 422 777 360 851 "},"}":{"x_min":28.53125,"x_max":332,"ha":385,"o":"m 132 -94 b 34 -262 132 -220 87 -247 b 34 -295 26 -270 26 -287 b 232 -83 175 -291 232 -243 l 232 172 b 332 333 232 241 254 311 l 332 354 b 232 518 257 372 232 433 l 232 754 b 34 980 232 934 176 977 b 34 947 26 972 26 955 b 132 775 95 947 132 875 l 132 554 b 225 343 132 436 144 377 b 132 150 157 313 132 276 l 132 -94 "},"Ä":{"x_min":3.28125,"x_max":957.453125,"ha":965,"o":"m 215 109 l 291 311 b 340 334 298 329 306 334 l 628 334 l 713 99 b 610 43 733 41 676 47 b 610 -2 602 34 602 5 b 792 0 662 -1 738 0 b 951 -2 849 0 899 -1 b 951 43 959 5 959 34 b 826 119 897 47 851 47 l 541 872 b 503 913 530 898 523 913 b 456 863 483 913 472 901 l 148 141 b 9 43 110 55 69 47 b 9 -2 1 34 1 5 b 133 0 60 -1 78 0 b 310 -2 190 0 259 -1 b 310 43 319 5 319 34 b 215 109 258 45 192 51 m 365 393 b 328 411 333 393 323 395 l 469 763 l 472 763 l 606 393 l 365 393 m 597 980 b 663 913 597 944 627 913 b 730 980 699 913 730 944 b 663 1047 730 1016 699 1047 b 597 980 627 1047 597 1016 m 267 980 b 334 913 267 944 298 913 b 401 980 370 913 401 944 b 334 1047 401 1016 370 1047 b 267 980 298 1047 267 1016 "},"¸":{"x_min":300,"x_max":551.390625,"ha":751,"o":"m 419 -133 b 465 -182 451 -133 465 -152 b 394 -237 465 -218 436 -237 b 313 -218 366 -237 351 -232 b 300 -254 304 -227 300 -237 b 402 -277 334 -269 358 -277 b 551 -175 487 -277 551 -234 b 452 -88 551 -122 508 -88 b 416 -93 440 -88 427 -90 l 451 0 l 404 0 l 348 -133 l 356 -141 b 419 -133 379 -134 393 -133 "},"a":{"x_min":50,"x_max":631.9375,"ha":635,"o":"m 406 66 b 513 -13 415 37 438 -13 b 631 48 581 -13 631 41 b 613 72 631 58 619 72 b 570 50 605 72 600 50 b 515 168 516 50 515 104 l 515 375 b 305 609 515 572 406 609 b 76 455 191 609 76 530 b 125 406 76 422 93 406 b 186 452 165 406 186 434 b 181 477 186 462 184 472 b 179 505 180 481 179 490 b 294 563 179 548 241 563 b 406 383 341 563 406 540 b 398 366 406 373 402 368 l 279 337 b 50 136 145 304 50 230 b 225 -13 50 26 127 -13 b 376 44 288 -13 315 -2 l 404 66 l 406 66 m 406 323 l 406 138 b 387 102 406 120 398 111 b 265 43 351 73 304 43 b 165 141 195 43 165 98 b 297 294 165 204 194 266 l 406 323 "},"=":{"x_min":91.671875,"x_max":640.28125,"ha":732,"o":"m 640 268 l 91 268 l 91 200 l 640 200 l 640 268 m 640 441 l 91 441 l 91 373 l 640 373 l 640 441 "},"N":{"x_min":14.578125,"x_max":967.359375,"ha":971,"o":"m 772 711 l 772 247 b 762 205 772 220 772 205 b 695 281 751 205 736 230 l 219 895 l 31 898 b 31 852 23 890 23 861 b 141 763 91 848 133 800 l 141 184 b 20 43 141 61 118 52 b 20 -2 12 34 12 5 b 176 0 88 -1 115 0 b 330 -2 236 0 261 -1 b 330 43 338 5 338 34 b 209 184 233 52 209 58 l 209 609 b 220 677 209 656 209 677 b 268 631 229 677 244 662 l 752 19 b 808 -13 768 -1 786 -13 b 840 29 827 -13 840 2 l 840 711 b 961 852 840 834 863 843 b 961 898 969 861 969 890 b 805 895 893 897 866 895 b 651 898 745 895 720 897 b 651 852 643 890 643 861 b 772 711 748 843 772 837 "},"ú":{"x_min":30.0625,"x_max":713.390625,"ha":729,"o":"m 301 -14 b 480 69 355 -14 411 13 b 497 67 486 74 497 77 b 512 -14 497 34 512 -14 b 539 -14 522 -18 527 -18 b 707 41 569 10 622 31 b 707 78 715 49 715 70 b 605 180 618 85 605 112 l 605 447 b 611 588 605 488 611 588 b 600 598 611 594 607 598 b 551 595 593 597 572 595 b 409 598 507 595 461 597 b 409 552 401 590 401 560 b 496 440 477 548 496 531 l 496 172 b 473 117 496 145 493 134 b 343 51 422 73 377 51 b 232 194 301 51 232 70 l 232 447 b 237 588 232 488 237 588 b 226 598 237 594 233 598 b 177 595 219 597 198 595 b 36 598 133 595 87 597 b 36 552 27 590 27 560 b 122 441 102 547 122 531 l 122 174 b 301 -14 122 78 164 -14 m 412 931 l 307 766 b 291 727 296 748 291 742 b 311 709 291 717 301 709 b 352 735 321 709 332 715 l 512 887 l 508 902 b 432 934 476 933 440 934 b 412 931 425 934 416 933 "},"ꜝ":{"x_min":56.9375,"x_max":168.0625,"ha":224,"o":"m 112 1147 b 56 1080 87 1147 56 1129 b 80 905 56 1016 70 986 b 97 733 88 834 94 752 b 112 720 98 727 101 720 b 126 738 123 720 125 729 b 143 905 129 751 129 806 b 168 1080 154 983 168 1020 b 112 1147 168 1129 137 1147 m 56 581 b 112 526 56 551 81 526 b 168 581 143 526 168 551 b 112 637 168 612 143 637 b 56 581 81 637 56 612 "},"2":{"x_min":68.0625,"x_max":541.671875,"ha":611,"o":"m 80 615 b 133 565 80 587 105 565 b 194 618 155 565 194 593 b 188 644 194 629 191 634 b 179 676 186 654 179 665 b 295 756 179 709 200 756 b 423 597 343 756 423 723 b 315 365 423 512 393 444 l 218 269 b 68 -2 88 137 68 75 b 177 0 68 -2 136 0 l 406 0 b 509 -2 448 0 509 -2 b 541 205 526 66 540 166 b 504 211 533 212 516 213 b 411 86 481 118 458 86 l 177 86 b 275 244 177 148 268 237 l 406 372 b 538 602 480 444 538 502 b 304 802 538 744 411 802 b 80 615 158 802 80 694 "},"ü":{"x_min":29.859375,"x_max":713.203125,"ha":729,"o":"m 301 -14 b 480 69 355 -14 411 13 b 497 67 486 74 497 77 b 512 -14 497 34 512 -14 b 538 -14 522 -18 527 -18 b 706 41 569 10 622 31 b 706 78 715 49 715 70 b 605 180 618 85 605 112 l 605 447 b 611 588 605 488 611 588 b 600 598 611 594 606 598 b 551 595 593 597 572 595 b 409 598 506 595 461 597 b 409 552 401 590 401 560 b 495 440 477 548 495 531 l 495 172 b 473 117 495 145 493 134 b 343 51 422 73 377 51 b 231 194 301 51 231 70 l 231 447 b 237 588 231 488 237 588 b 226 598 237 594 233 598 b 177 595 219 597 198 595 b 36 598 133 595 87 597 b 36 552 27 590 27 560 b 122 441 102 547 122 531 l 122 174 b 301 -14 122 78 163 -14 m 405 798 b 470 733 405 762 434 733 b 536 798 506 733 536 762 b 470 865 536 834 506 865 b 405 798 434 865 405 834 m 170 798 b 236 733 170 762 200 733 b 301 798 272 733 301 762 b 236 865 301 834 272 865 b 170 798 200 865 170 834 "},"¯":{"x_min":81.9375,"x_max":470.828125,"ha":551,"o":"m 437 734 b 470 776 455 734 470 759 b 451 795 470 784 465 795 l 112 795 b 81 755 95 795 81 772 b 98 734 81 745 86 734 l 437 734 "},"Z":{"x_min":56.9375,"x_max":802.78125,"ha":839,"o":"m 765 -2 b 802 229 772 75 786 156 l 759 236 b 586 54 731 136 691 54 l 262 54 b 227 72 238 54 227 59 b 238 100 227 79 231 87 l 759 820 b 793 895 787 859 793 880 b 761 909 793 905 787 909 b 673 895 744 909 716 900 l 227 895 b 115 913 162 895 166 909 b 84 681 109 838 95 738 l 126 675 b 284 840 155 770 180 840 l 605 840 b 619 829 615 840 619 837 b 608 804 619 822 615 813 l 68 52 b 56 20 59 41 56 30 b 83 0 56 6 63 0 l 588 0 b 765 -2 626 0 765 -2 "},"u":{"x_min":29.859375,"x_max":713.203125,"ha":729,"o":"m 301 -13 b 480 69 355 -13 411 13 b 497 68 486 75 497 77 b 512 -13 497 34 512 -13 b 538 -13 522 -18 527 -18 b 706 41 569 11 622 31 b 706 79 715 50 715 70 b 605 180 618 86 605 112 l 605 447 b 611 588 605 488 611 588 b 600 598 611 594 606 598 b 551 595 593 597 572 595 b 409 598 506 595 461 597 b 409 552 401 590 401 561 b 495 440 477 548 495 531 l 495 172 b 473 118 495 145 493 134 b 343 51 422 73 377 51 b 231 194 301 51 231 70 l 231 447 b 237 588 231 488 237 588 b 226 598 237 594 233 598 b 177 595 219 597 198 595 b 36 598 133 595 87 597 b 36 552 27 590 27 561 b 122 441 102 547 122 531 l 122 175 b 301 -13 122 79 163 -13 "},"Ó":{"x_min":51.390625,"x_max":925,"ha":975,"o":"m 925 456 b 477 913 925 731 720 913 b 51 430 229 913 51 702 b 486 -13 51 156 247 -13 b 925 456 751 -13 925 179 m 459 866 b 791 430 648 866 791 719 b 513 33 791 181 672 33 b 184 454 347 33 184 187 b 459 866 184 745 333 866 m 537 1138 l 365 1019 b 344 990 347 1006 344 1000 b 365 969 344 979 352 969 b 423 986 377 969 394 973 l 623 1066 b 537 1138 605 1095 576 1119 "},"k":{"x_min":20.140625,"x_max":663.203125,"ha":669,"o":"m 119 169 b 26 42 119 54 104 48 b 26 -2 18 34 18 5 b 175 0 84 -1 116 0 b 301 -2 223 0 241 -1 b 301 42 309 5 309 34 b 229 169 244 48 229 54 l 229 294 b 308 244 261 292 280 283 l 409 101 b 441 26 437 60 441 44 l 441 4 b 447 -2 441 0 443 -2 b 543 0 475 -1 501 0 b 656 -2 586 0 615 -1 b 656 42 665 5 665 34 b 537 101 609 48 568 54 l 375 341 b 368 360 370 347 368 354 b 373 374 368 366 369 370 l 479 491 b 631 552 519 533 562 550 b 631 598 640 561 640 590 b 511 596 580 597 561 596 b 383 598 458 596 434 597 b 383 552 375 590 375 561 b 408 481 466 548 422 495 b 229 329 334 401 265 340 l 229 810 b 234 956 229 900 234 956 b 216 969 234 965 229 969 b 22 932 181 956 77 936 b 30 890 19 921 22 899 b 119 776 102 886 119 893 l 119 169 "},"₯":{"x_min":12.625,"x_max":1400.125,"ha":1475,"o":"m 418 807 b 520 920 445 854 477 886 l 514 938 b 339 800 445 907 387 867 b 43 692 239 786 145 752 l 57 664 b 311 757 144 703 225 740 b 216 474 272 690 241 599 l 140 90 b 65 33 132 50 112 33 l 27 33 b 16 22 22 33 18 28 l 12 0 l 173 1 b 359 0 218 1 244 0 b 795 459 636 0 795 215 b 452 809 795 656 645 809 b 418 807 440 809 429 807 m 318 475 b 397 767 345 614 369 703 l 404 767 b 689 454 604 767 689 615 b 332 40 689 263 618 40 b 239 71 240 40 239 47 b 240 89 239 79 239 84 l 318 475 m 826 -264 b 904 22 857 -207 880 -77 b 1023 -3 937 4 970 -3 b 1400 371 1265 -3 1400 225 b 1194 560 1400 482 1322 560 b 987 488 1134 560 1052 540 b 859 238 948 454 900 411 l 804 -9 b 709 -281 768 -163 736 -238 l 719 -303 l 826 -264 m 1287 367 b 1050 34 1287 217 1205 34 b 954 79 1012 34 987 46 b 907 39 944 70 919 42 l 966 296 b 1152 513 1009 479 1089 513 b 1287 367 1230 513 1287 478 "},"Ù":{"x_min":7.640625,"x_max":911.8125,"ha":918,"o":"m 238 726 b 366 852 238 841 259 848 b 366 898 375 861 375 890 b 179 895 298 897 252 895 b 13 898 115 895 83 897 b 13 852 5 890 5 861 b 120 726 97 848 120 841 l 120 327 b 445 -13 120 44 320 -13 b 798 409 730 -13 798 162 l 798 726 b 905 852 798 841 822 843 b 905 898 913 861 913 890 b 763 895 837 897 819 895 b 602 898 701 895 672 897 b 602 852 594 890 594 861 b 730 726 706 843 730 841 l 730 384 b 475 43 730 229 709 43 b 309 112 408 43 351 72 b 238 373 241 177 238 283 l 238 726 m 383 1136 b 277 1073 334 1119 302 1097 l 491 986 b 551 969 520 973 540 969 b 572 990 562 969 572 979 b 551 1019 572 1000 566 1008 l 383 1136 "},"€":{"x_min":-0.171875,"x_max":586,"ha":608,"o":"m 19 423 l 79 423 b 77 381 77 409 77 395 b 79 352 77 372 77 362 l 27 352 l 0 318 l 0 305 l 81 305 b 373 -13 102 105 208 -13 b 538 9 444 -13 499 6 b 586 194 559 62 573 125 b 541 205 573 201 556 202 b 385 31 512 112 483 31 b 194 305 283 31 209 123 l 427 305 l 452 352 l 191 352 l 191 398 l 191 423 l 476 423 l 501 470 l 194 470 b 376 756 208 629 267 756 b 540 573 477 756 517 665 b 581 579 554 570 567 572 b 554 781 576 650 566 719 b 379 802 508 784 451 802 b 83 470 222 802 108 677 l 47 470 l 20 436 l 19 423 "},"¢":{"x_min":90.28125,"x_max":541.671875,"ha":611,"o":"m 305 190 b 197 415 243 221 197 303 b 305 629 197 532 241 608 l 305 190 m 305 803 l 305 672 b 90 387 194 650 90 544 b 305 117 90 237 168 131 l 305 -16 l 352 -16 l 352 115 b 541 240 420 118 483 144 b 515 258 536 251 526 257 b 365 176 472 203 419 176 b 352 176 361 176 356 176 l 352 635 b 429 547 415 629 423 589 b 476 501 433 514 450 501 b 537 557 502 501 537 518 b 352 676 537 625 468 674 l 352 801 l 305 803 "},"ß":{"x_min":25.6875,"x_max":694.453125,"ha":751,"o":"m 127 169 b 31 43 127 54 111 47 b 31 -2 23 34 23 5 b 183 0 90 -1 123 0 b 304 -2 230 0 244 -1 b 304 43 312 5 312 34 b 237 169 254 50 237 54 l 237 613 b 398 923 237 763 254 923 b 506 797 472 923 506 872 b 361 568 506 695 454 640 l 361 550 b 576 216 477 461 576 345 b 477 31 576 90 519 31 b 404 73 445 31 404 31 b 415 126 404 90 415 102 b 376 168 415 154 404 168 b 333 119 354 168 333 141 b 477 -13 333 58 361 -13 b 694 240 605 -13 694 94 b 444 568 694 401 554 495 l 444 570 b 622 815 541 644 622 708 b 411 969 622 881 555 969 b 127 662 301 969 127 891 b 61 598 127 605 111 598 b 40 552 43 598 31 561 l 111 552 b 127 536 123 552 127 547 l 127 169 "},"é":{"x_min":50.828125,"x_max":564.71875,"ha":621,"o":"m 535 129 b 363 54 484 76 443 54 b 211 154 313 54 255 83 b 167 344 184 200 167 263 l 536 341 b 563 365 553 341 563 350 b 328 606 563 481 521 606 b 50 280 207 606 50 491 b 116 75 50 202 70 127 b 328 -13 163 19 228 -13 b 564 106 434 -13 509 34 b 535 129 560 120 552 127 m 171 391 b 328 561 198 548 295 561 b 443 415 381 561 443 531 b 423 395 443 402 438 395 l 171 391 m 374 931 l 268 766 b 253 727 257 748 253 743 b 273 709 253 718 263 709 b 314 736 282 709 293 715 l 474 887 l 470 902 b 393 934 438 933 402 934 b 374 931 386 934 378 933 "},"s":{"x_min":66.671875,"x_max":486.109375,"ha":532,"o":"m 66 192 b 76 1 72 124 76 59 b 111 5 90 3 104 5 b 138 2 120 5 129 5 b 265 -12 176 -7 213 -12 b 486 162 343 -12 486 24 b 323 346 486 256 416 310 b 184 476 240 378 184 399 b 281 564 184 532 234 564 b 411 435 312 564 393 553 b 455 437 419 427 447 428 b 463 584 455 487 462 538 b 281 610 420 591 354 610 b 86 455 179 610 86 544 b 238 266 86 353 131 310 b 380 130 352 217 380 189 b 262 32 380 62 313 32 b 163 66 208 32 177 51 b 109 194 130 98 118 159 b 66 192 101 202 75 201 "},"B":{"x_min":20.140625,"x_max":759.71875,"ha":817,"o":"m 205 895 b 26 898 136 895 95 897 b 26 852 18 890 18 861 b 147 726 123 848 147 841 l 147 169 b 26 43 147 54 123 47 b 26 -2 18 34 18 5 b 206 0 94 -1 136 0 b 409 -2 266 0 286 -2 b 759 255 686 -2 759 136 b 545 500 759 388 666 465 l 545 502 b 677 684 615 537 677 608 b 379 898 677 777 637 898 b 205 895 330 898 265 895 m 265 461 l 361 461 b 630 229 551 461 630 354 b 380 43 630 127 591 43 b 265 136 283 43 265 90 l 265 461 m 265 791 b 386 851 265 837 265 851 b 565 668 463 851 565 809 b 368 508 565 550 483 508 l 265 508 l 265 791 "},"?":{"x_min":63.890625,"x_max":540.28125,"ha":604,"o":"m 200 59 b 273 -13 200 19 233 -13 b 347 59 313 -13 347 19 b 273 133 347 100 313 133 b 200 59 233 133 200 100 m 158 794 b 293 869 158 836 213 869 b 425 700 372 869 425 790 b 348 543 425 634 404 594 b 251 319 258 459 251 379 l 251 255 b 273 241 251 245 262 241 b 297 255 284 241 297 245 l 297 316 b 316 418 297 350 298 383 b 388 487 329 441 356 463 b 540 705 454 534 540 595 b 306 915 540 831 448 915 b 134 861 233 915 175 895 b 63 736 93 827 63 788 b 120 676 63 687 98 676 b 175 725 147 676 175 693 b 166 758 175 743 172 751 b 158 794 161 765 158 773 "},"H":{"x_min":20.140625,"x_max":985.421875,"ha":1014,"o":"m 858 169 l 858 726 b 979 852 858 841 881 848 b 979 898 987 861 987 890 b 798 895 911 897 869 895 b 619 898 729 895 688 897 b 619 852 611 890 611 861 b 740 726 716 848 740 841 l 740 504 l 265 504 l 265 726 b 386 852 265 841 288 848 b 386 898 394 861 394 890 b 205 895 318 897 276 895 b 26 898 136 895 95 897 b 26 852 18 890 18 861 b 147 726 123 848 147 841 l 147 169 b 26 43 147 54 123 47 b 26 -2 18 34 18 5 b 206 0 94 -1 136 0 b 386 -2 276 0 316 -1 b 386 43 394 5 394 34 b 265 169 288 47 265 54 l 265 445 l 740 445 l 740 169 b 619 43 740 54 716 47 b 619 -2 611 34 611 5 b 800 0 687 -1 729 0 b 979 -2 869 0 909 -1 b 979 43 987 5 987 34 b 858 169 881 47 858 54 "},"î":{"x_min":-2.78125,"x_max":357.640625,"ha":376,"o":"m 251 169 l 251 445 b 256 604 251 515 256 604 b 238 613 256 609 250 613 b 48 573 198 598 144 586 b 51 534 45 565 48 543 b 141 440 126 526 141 519 l 141 169 b 41 43 141 54 126 50 b 41 -2 33 34 33 5 b 197 0 100 -1 136 0 b 351 -2 256 0 291 -1 b 351 43 359 5 359 34 b 251 169 266 48 251 54 m 195 916 b 151 916 180 920 165 919 b -2 722 111 852 47 777 b 27 698 5 709 15 701 b 172 813 81 729 127 769 b 315 698 213 770 262 731 b 347 722 327 700 340 712 b 195 916 297 777 236 851 "},"c":{"x_min":51.390625,"x_max":552.78125,"ha":588,"o":"m 552 126 b 523 145 547 138 536 144 b 356 54 476 84 416 54 b 170 319 255 54 170 156 b 329 563 170 472 237 563 b 427 466 411 563 422 515 b 480 416 431 429 451 416 b 548 477 509 416 548 434 b 336 609 548 554 469 609 b 51 288 198 609 51 486 b 326 -13 51 109 151 -13 b 552 126 409 -13 483 12 "},"¶":{"x_min":79.171875,"x_max":815.28125,"ha":836,"o":"m 566 895 b 343 898 529 895 447 898 b 79 668 159 898 79 777 b 395 391 79 481 193 391 b 440 395 416 391 427 393 l 440 -223 b 365 -281 440 -262 422 -277 l 327 -284 b 318 -295 322 -286 318 -288 l 318 -322 l 320 -325 b 566 -322 388 -322 470 -322 b 812 -325 662 -322 745 -322 l 815 -322 l 815 -295 b 804 -284 815 -288 809 -286 l 768 -281 b 691 -223 712 -277 691 -265 l 691 797 b 768 855 691 838 712 850 l 804 858 b 815 869 809 858 815 862 l 815 895 l 812 898 b 566 895 745 895 662 895 m 509 797 b 565 850 509 834 533 850 b 622 797 597 850 622 840 l 622 -223 b 565 -276 622 -266 597 -276 b 509 -223 533 -276 509 -261 l 509 797 "},"¥":{"x_min":-6.25,"x_max":617.53125,"ha":611,"o":"m 251 169 l 251 176 l 65 176 b 58 184 58 176 58 177 l 58 202 b 88 230 58 213 65 230 l 251 230 l 251 318 l 65 318 b 58 326 58 318 58 319 l 58 345 b 88 373 58 356 65 373 l 245 373 l 105 661 b 0 745 81 711 54 740 b 0 791 -8 754 -8 783 b 118 788 41 790 100 788 b 234 791 126 788 193 790 b 234 745 243 783 243 754 b 195 698 186 745 172 744 l 336 408 l 338 408 l 438 640 b 420 745 480 734 486 738 b 420 791 412 754 412 783 b 525 788 462 790 502 788 b 612 791 547 788 570 790 b 609 745 620 783 618 754 b 495 640 540 738 538 736 l 376 373 l 545 373 b 555 365 551 373 555 370 l 555 336 b 523 318 555 323 537 318 l 362 318 l 362 230 l 545 230 b 555 222 551 230 555 227 l 555 194 b 523 176 555 181 537 176 l 362 176 l 362 169 b 497 43 362 54 386 47 b 497 -2 505 34 505 5 b 308 0 427 -1 381 0 b 116 -2 233 0 184 -1 b 116 43 108 5 108 34 b 251 169 227 47 251 54 "},"(":{"x_min":61.109375,"x_max":384.71875,"ha":414,"o":"m 61 350 b 355 -283 61 287 66 -33 b 384 -259 369 -280 380 -270 b 176 350 338 -206 176 -15 b 384 956 176 715 340 906 b 355 981 379 970 370 980 b 61 350 190 840 61 608 "},"␣":{"x_min":-23.609375,"x_max":370.828125,"ha":347,"o":"m -23 -30 l -23 -281 l 370 -281 l 370 -30 l 323 -30 l 323 -200 l 23 -200 l 23 -30 l -23 -30 "},"U":{"x_min":7.640625,"x_max":911.8125,"ha":918,"o":"m 238 726 b 366 852 238 841 259 848 b 366 898 375 861 375 890 b 179 895 298 897 252 895 b 13 898 115 895 83 897 b 13 852 5 890 5 861 b 120 726 97 848 120 841 l 120 327 b 445 -13 120 44 320 -13 b 798 409 730 -13 798 162 l 798 726 b 905 852 798 841 822 843 b 905 898 913 861 913 890 b 763 895 837 897 819 895 b 602 898 701 895 672 897 b 602 852 594 890 594 861 b 730 726 706 843 730 841 l 730 384 b 475 43 730 229 709 43 b 309 112 408 43 351 72 b 238 373 241 177 238 283 l 238 726 "},"Ñ":{"x_min":14.640625,"x_max":967.421875,"ha":971,"o":"m 772 711 l 772 247 b 762 205 772 220 772 205 b 695 281 751 205 736 230 l 219 895 l 32 898 b 32 852 23 890 23 861 b 141 763 91 848 133 799 l 141 184 b 20 42 141 61 118 52 b 20 -2 12 34 12 5 b 176 0 88 -1 115 0 b 330 -2 236 0 261 -1 b 330 42 338 5 338 34 b 209 184 233 52 209 58 l 209 609 b 220 677 209 656 209 677 b 268 631 229 677 244 662 l 752 19 b 808 -14 768 -1 786 -14 b 840 29 827 -14 840 2 l 840 711 b 961 852 840 834 863 842 b 961 898 969 861 969 890 b 805 895 893 897 866 895 b 651 898 745 895 720 897 b 651 852 643 890 643 861 b 772 711 748 842 772 837 m 579 1034 b 507 1060 552 1034 529 1044 b 407 1108 479 1080 448 1108 b 295 972 347 1108 315 1053 b 333 965 304 963 318 962 b 397 1031 347 1010 361 1031 b 472 1005 420 1031 447 1020 b 561 961 501 985 530 961 b 682 1098 625 961 665 1015 b 644 1106 673 1103 659 1108 b 579 1034 625 1048 609 1034 "},"F":{"x_min":8.03125,"x_max":649,"ha":663,"o":"m 382 448 b 508 354 500 448 504 416 b 554 354 517 345 546 345 b 551 476 553 402 551 429 b 554 595 551 523 553 554 b 508 595 546 604 517 604 b 382 501 504 519 500 501 l 253 501 l 253 793 b 303 840 253 826 269 840 l 449 840 b 605 688 553 840 575 784 l 649 695 b 618 897 640 752 619 886 b 612 901 617 900 615 901 b 547 895 587 895 580 895 l 193 895 b 14 898 193 895 83 897 b 14 852 5 890 5 861 b 135 726 111 848 135 841 l 135 169 b 14 43 135 54 111 47 b 14 -2 5 34 5 5 b 194 0 82 -1 124 0 b 374 -2 264 0 304 -1 b 374 43 382 5 382 34 b 253 169 276 47 253 54 l 253 448 l 382 448 "},"­":{"x_min":55.5625,"x_max":413.890625,"ha":469,"o":"m 376 309 b 413 365 394 309 413 348 b 394 393 413 379 408 393 l 90 393 b 55 336 73 393 55 361 b 76 309 55 322 63 309 l 376 309 "},":":{"x_min":125,"x_max":272.21875,"ha":356,"o":"m 125 127 b 198 54 125 87 158 54 b 272 127 238 54 272 87 b 198 201 272 168 238 201 b 125 127 158 201 125 168 m 125 493 b 198 419 125 452 158 419 b 272 493 238 419 272 452 b 198 566 272 533 238 566 b 125 493 158 566 125 533 "},"Û":{"x_min":7.640625,"x_max":911.8125,"ha":918,"o":"m 238 726 b 366 852 238 841 259 848 b 366 898 375 860 375 889 b 179 895 298 896 252 895 b 13 898 115 895 83 896 b 13 852 5 889 5 860 b 120 726 97 848 120 841 l 120 327 b 445 -14 120 44 320 -14 b 798 409 730 -14 798 162 l 798 726 b 905 852 798 841 822 842 b 905 898 913 860 913 889 b 763 895 837 896 819 895 b 602 898 701 895 672 896 b 602 852 594 889 594 860 b 730 726 706 842 730 841 l 730 384 b 475 42 730 228 709 42 b 309 112 408 42 351 71 b 238 373 241 177 238 283 l 238 726 m 511 1121 b 456 1121 488 1131 476 1133 b 316 987 413 1074 368 1026 b 336 958 319 974 323 966 b 484 1042 388 981 433 1005 b 631 958 530 1008 577 983 b 654 987 644 962 650 973 b 511 1121 604 1024 552 1071 "},"*":{"x_min":62.5,"x_max":450,"ha":513,"o":"m 233 759 b 116 637 187 708 116 697 b 156 598 116 616 133 598 b 254 743 209 598 219 680 b 352 598 288 688 298 598 b 393 638 372 598 393 613 b 277 759 393 694 325 708 b 354 765 302 763 327 765 b 450 816 401 765 450 775 b 402 858 450 830 440 858 b 270 786 356 858 334 813 b 297 920 273 827 297 883 b 251 969 297 954 276 969 b 209 915 226 969 209 944 b 241 787 209 879 236 841 b 108 858 180 812 155 858 b 62 816 75 858 62 836 b 175 765 62 775 106 765 b 233 759 195 765 215 763 "},"₫":{"x_min":41.671875,"x_max":696.53125,"ha":703,"o":"m 479 172 b 456 117 479 145 476 134 b 326 51 405 73 361 51 b 173 306 251 51 173 133 b 213 491 173 406 193 462 b 343 560 256 556 315 560 b 455 510 393 560 427 542 b 479 435 475 488 479 478 l 479 172 m 675 794 l 588 794 l 588 809 b 594 955 588 899 594 955 b 576 969 594 965 588 969 b 381 931 541 955 437 935 b 390 890 379 920 381 898 b 477 794 458 885 476 891 l 263 794 l 263 740 l 479 740 l 479 598 b 466 585 479 588 476 585 b 358 609 461 585 404 609 b 150 526 266 609 205 578 b 54 281 90 466 54 384 b 290 -14 54 110 140 -14 b 463 69 344 -14 394 13 b 480 67 469 74 480 77 b 495 -14 480 34 495 -14 b 522 -14 506 -18 511 -16 b 690 41 552 10 605 31 b 690 78 698 49 698 70 b 588 180 601 85 588 112 l 588 740 l 676 740 l 675 794 m 41 -68 l 41 -132 l 675 -132 l 675 -68 l 41 -68 "},"°":{"x_min":47.21875,"x_max":323.609375,"ha":371,"o":"m 47 729 b 186 590 47 652 109 590 b 323 729 262 590 323 652 b 186 869 323 806 262 869 b 47 729 109 869 47 806 m 276 727 b 186 631 276 680 243 631 b 94 727 127 631 94 679 b 186 827 94 777 126 827 b 276 727 248 827 276 773 "},"V":{"x_min":1.34375,"x_max":902.078125,"ha":906,"o":"m 622 852 b 695 733 725 845 725 808 l 476 176 l 469 176 l 248 741 b 319 852 216 823 225 843 b 319 898 327 861 327 890 b 151 895 254 897 205 895 b 6 898 95 895 72 897 b 8 852 -1 890 0 861 b 131 726 87 845 93 827 l 406 15 b 438 -16 415 -6 425 -16 b 472 15 454 -16 463 -5 l 758 723 b 895 852 784 788 804 841 b 895 898 904 861 904 890 b 773 895 840 897 805 895 b 622 898 741 895 687 897 b 622 852 613 890 613 861 "},"å":{"x_min":50,"x_max":631.9375,"ha":635,"o":"m 406 66 b 513 -13 415 37 438 -13 b 631 48 581 -13 631 41 b 613 72 631 58 619 72 b 570 50 605 72 600 50 b 515 168 516 50 515 104 l 515 375 b 305 609 515 572 406 609 b 76 455 191 609 76 530 b 125 406 76 422 93 406 b 186 452 165 406 186 434 b 181 477 186 462 184 472 b 179 505 180 481 179 490 b 294 563 179 548 241 563 b 406 383 341 563 406 540 b 398 366 406 373 402 368 l 279 337 b 50 136 145 304 50 230 b 225 -13 50 26 127 -13 b 376 44 288 -13 315 -2 l 404 66 l 406 66 m 406 323 l 406 138 b 387 102 406 120 398 111 b 265 43 351 73 304 43 b 165 141 195 43 165 98 b 297 294 165 204 194 266 l 406 323 m 169 808 b 291 690 169 744 227 690 b 413 808 358 690 413 745 b 291 926 413 873 355 926 b 169 808 227 926 169 872 m 291 881 b 358 808 333 881 358 851 b 291 734 358 769 334 734 b 225 808 248 734 225 769 b 291 881 225 850 248 881 "}," ":{"x_min":0,"x_max":0,"ha":347},"0":{"x_min":51.390625,"x_max":554.171875,"ha":611,"o":"m 300 -15 b 554 398 401 -15 554 90 b 465 711 554 529 523 634 b 305 802 425 765 365 802 b 51 386 175 802 51 645 b 300 -15 51 173 151 -15 m 305 754 b 363 733 327 754 348 747 b 440 423 404 698 440 600 b 418 152 440 302 436 219 b 301 30 387 44 325 30 b 165 372 179 30 165 258 b 305 754 165 695 245 754 "},"¾":{"x_min":50.453125,"x_max":883.71875,"ha":917,"o":"m 739 -5 b 665 -69 739 -62 721 -67 b 665 -110 658 -80 660 -101 b 771 -108 707 -108 721 -108 b 876 -110 812 -108 835 -108 b 876 -69 882 -100 882 -80 b 805 -5 829 -67 805 -62 l 805 27 l 875 27 l 883 74 l 805 74 l 805 192 b 786 206 805 205 794 206 b 750 178 776 206 760 191 b 739 153 747 174 739 162 l 739 74 l 611 74 b 792 333 642 121 729 237 l 749 347 l 535 44 l 540 27 l 739 27 l 739 -5 m 256 795 b 157 694 256 738 218 702 b 160 657 153 680 151 665 b 187 659 171 658 178 659 b 292 575 221 659 292 654 b 190 467 292 486 231 467 b 126 493 146 467 133 476 b 85 516 118 509 104 516 b 50 484 67 516 50 504 b 185 426 50 441 147 426 b 378 586 296 426 378 490 b 267 708 378 666 312 704 b 337 802 307 730 337 762 b 219 884 337 854 292 884 b 61 794 99 884 61 818 b 93 769 61 790 67 769 b 131 809 125 769 124 794 b 203 843 140 832 179 843 b 256 795 225 843 256 832 m 780 834 l 143 -75 l 201 -86 l 837 823 l 780 834 "},"@":{"x_min":81.5625,"x_max":1164.90625,"ha":1243,"o":"m 809 102 b 827 195 809 110 819 157 l 910 553 l 889 560 l 816 542 l 809 509 b 702 569 795 545 748 569 b 378 212 555 569 378 410 b 548 39 378 156 409 39 b 732 182 596 39 671 80 l 735 181 b 714 94 724 146 714 114 b 764 37 714 71 724 37 b 1164 391 1067 37 1164 232 b 651 848 1164 650 949 848 b 81 309 338 848 81 607 b 630 -219 81 13 298 -219 b 953 -107 787 -219 870 -171 l 935 -82 b 656 -174 860 -142 774 -174 b 192 334 298 -174 192 125 b 637 805 192 663 426 805 b 1053 381 810 805 1053 667 b 824 85 1053 150 966 85 b 809 102 821 85 809 88 m 789 438 b 748 277 789 391 766 320 b 588 96 705 175 637 96 b 480 224 501 96 480 157 b 574 470 480 310 503 399 b 699 525 616 513 676 525 b 789 438 749 525 789 491 "},"ö":{"x_min":56.9375,"x_max":643.0625,"ha":700,"o":"m 336 563 b 523 252 455 563 523 456 b 373 31 523 69 438 31 b 176 316 229 31 176 209 b 336 563 176 437 219 563 m 56 284 b 348 -13 56 143 152 -13 b 643 297 555 -13 643 158 b 351 609 643 441 566 609 b 56 284 163 609 56 461 m 402 798 b 468 733 402 762 431 733 b 533 798 504 733 533 762 b 468 865 533 834 504 865 b 402 798 431 865 402 834 m 168 798 b 233 733 168 762 197 733 b 298 798 269 733 298 762 b 233 865 298 834 269 865 b 168 798 197 865 168 834 "},"i":{"x_min":35.421875,"x_max":357.640625,"ha":376,"o":"m 251 169 l 251 445 b 256 604 251 515 256 604 b 238 613 256 609 250 613 b 48 573 198 598 144 586 b 51 534 45 565 48 543 b 141 440 126 526 141 519 l 141 169 b 41 43 141 54 126 50 b 41 -2 33 34 33 5 b 197 0 100 -1 136 0 b 351 -2 256 0 291 -1 b 351 43 359 5 359 34 b 251 169 266 48 251 54 m 125 831 b 191 759 125 795 158 759 b 263 826 230 759 263 795 b 197 898 263 859 234 898 b 125 831 163 898 125 865 "},"Õ":{"x_min":52.171875,"x_max":925.78125,"ha":975,"o":"m 925 456 b 478 913 925 731 721 913 b 52 430 229 913 52 702 b 486 -14 52 156 248 -14 b 925 456 752 -14 925 179 m 460 866 b 792 430 649 866 792 719 b 514 33 792 181 673 33 b 185 454 348 33 185 187 b 460 866 185 745 334 866 m 570 1034 b 498 1060 543 1034 520 1044 b 398 1108 470 1080 439 1108 b 286 972 338 1108 306 1053 b 324 965 295 963 309 962 b 388 1031 338 1010 352 1031 b 463 1005 411 1031 438 1020 b 552 961 492 985 521 961 b 673 1098 616 961 656 1015 b 635 1106 664 1103 650 1108 b 570 1034 616 1048 600 1034 "},"þ":{"x_min":10.421875,"x_max":645.828125,"ha":697,"o":"m 116 776 l 116 -153 b 16 -279 116 -268 101 -275 b 16 -325 8 -287 8 -316 b 172 -322 75 -323 111 -322 b 340 -325 237 -322 280 -323 b 340 -279 348 -316 348 -287 b 226 -153 241 -273 226 -268 l 226 -14 b 252 3 226 24 237 9 b 351 -14 280 -8 312 -14 b 545 66 425 -14 491 12 b 645 326 608 128 645 213 b 409 609 645 471 544 609 b 250 534 337 609 284 570 b 226 544 229 513 226 513 l 226 809 b 231 955 226 899 231 955 b 213 969 231 964 226 969 b 19 931 179 955 75 935 b 27 889 16 920 19 898 b 116 776 100 885 116 892 m 223 399 b 373 545 223 496 326 545 b 454 512 408 545 433 533 b 526 288 513 452 526 371 b 344 33 526 167 491 33 b 247 67 323 33 286 34 b 223 135 230 83 223 91 l 223 399 "},"]":{"x_min":43.75,"x_max":344.4375,"ha":494,"o":"m 344 977 l 50 977 b 50 936 41 969 41 944 b 251 779 241 920 251 900 l 251 -69 b 50 -225 251 -190 240 -211 b 50 -266 41 -233 41 -258 l 344 -266 l 344 977 "},"❸":{"x_min":68.0625,"x_max":981.953125,"ha":1054,"o":"m 577 573 b 522 629 577 616 550 629 b 445 580 494 629 447 615 b 409 540 444 563 440 540 b 376 565 381 540 376 561 b 538 662 376 588 418 662 b 655 580 609 662 655 631 b 586 486 655 540 625 508 b 697 363 631 481 697 444 b 494 204 697 268 605 204 b 370 255 441 204 370 226 b 404 283 370 269 388 283 b 438 263 422 283 431 273 b 509 238 451 250 465 238 b 615 352 536 238 615 256 b 505 441 615 431 540 441 b 479 438 495 441 490 440 l 476 472 b 577 573 537 480 577 516 m 525 897 b 68 437 272 897 68 693 b 525 -20 68 184 272 -20 b 981 437 777 -20 981 184 b 525 897 981 690 779 897 "},"m":{"x_min":29.921875,"x_max":1070.53125,"ha":1083,"o":"m 263 455 b 405 537 318 508 362 537 b 497 411 458 537 497 504 l 497 169 b 411 43 497 55 486 48 b 411 -2 404 34 404 5 b 552 0 469 -1 497 0 b 688 -2 609 0 629 -1 b 688 43 695 5 695 34 b 607 169 619 48 607 55 l 607 390 b 605 445 607 409 607 429 b 780 537 672 519 726 537 b 866 413 833 537 866 506 l 866 169 b 780 43 866 55 852 48 b 780 -2 773 34 773 5 b 922 0 838 -1 866 0 b 1065 -2 979 0 1005 -1 b 1065 43 1072 5 1072 34 b 976 169 988 48 976 55 l 976 388 b 830 609 976 512 952 609 b 609 506 758 609 682 583 b 594 506 605 502 597 495 b 455 609 580 563 527 609 b 252 497 375 609 313 559 b 238 497 247 491 238 477 b 245 602 238 538 245 602 b 229 613 245 609 240 613 b 37 573 188 598 133 586 b 40 534 34 565 37 543 b 130 440 115 526 130 520 l 130 169 b 36 43 130 55 112 48 b 36 -2 27 34 27 5 b 186 0 93 -1 126 0 b 322 -2 240 0 263 -1 b 322 43 330 5 330 34 b 240 169 252 50 240 55 l 240 397 b 263 455 240 426 252 443 "},"8":{"x_min":62.5,"x_max":551.390625,"ha":611,"o":"m 300 31 b 151 191 240 31 151 73 b 281 398 151 230 169 323 l 343 361 b 456 186 423 309 456 248 b 300 31 456 54 359 31 m 518 637 b 316 802 518 731 445 802 b 94 620 181 802 94 722 b 211 443 94 547 130 493 l 234 429 b 138 350 201 404 172 379 b 62 191 84 302 62 243 b 297 -13 62 56 158 -13 b 551 212 469 -13 551 112 b 450 397 551 288 518 351 l 369 450 b 518 637 427 488 518 552 m 309 756 b 429 638 395 756 429 700 b 320 480 429 568 356 506 l 280 505 b 187 645 197 559 187 605 b 309 756 187 706 230 756 "},"R":{"x_min":17.359375,"x_max":818.25,"ha":815,"o":"m 262 169 l 262 404 b 425 351 379 404 404 383 l 573 109 b 756 -13 612 44 673 -13 b 815 -4 777 -13 801 -11 b 813 29 819 4 819 18 b 680 136 751 29 716 75 l 505 427 b 690 665 565 447 690 519 b 616 838 690 734 666 791 b 376 905 550 901 463 905 b 202 895 341 905 255 895 b 23 898 133 895 93 897 b 23 852 15 890 15 861 b 144 726 120 848 144 841 l 144 169 b 23 43 144 54 120 47 b 23 -2 15 34 15 5 b 204 0 91 -1 133 0 b 383 -2 273 0 313 -1 b 383 43 391 5 391 34 b 262 169 286 47 262 54 m 377 858 b 562 663 462 858 562 827 b 329 451 562 490 463 451 l 262 451 l 262 769 b 377 858 262 809 279 858 "},"á":{"x_min":49.953125,"x_max":631.90625,"ha":635,"o":"m 406 66 b 513 -13 415 37 438 -13 b 631 48 581 -13 631 41 b 613 72 631 58 619 72 b 570 50 605 72 599 50 b 515 168 516 50 515 104 l 515 375 b 305 609 515 572 406 609 b 76 455 191 609 76 530 b 124 406 76 422 93 406 b 186 452 165 406 186 434 b 181 477 186 462 184 472 b 179 505 180 481 179 490 b 294 563 179 548 241 563 b 406 383 341 563 406 540 b 398 366 406 373 402 368 l 279 337 b 49 136 145 304 49 230 b 224 -13 49 26 127 -13 b 376 44 288 -13 315 -2 l 404 66 l 406 66 m 406 323 l 406 138 b 387 102 406 120 398 111 b 265 43 351 73 304 43 b 165 141 195 43 165 98 b 297 294 165 204 194 266 l 406 323 m 338 931 l 233 766 b 218 727 222 748 218 743 b 237 709 218 718 227 709 b 279 736 247 709 258 715 l 438 887 l 434 902 b 358 934 402 933 366 934 b 338 931 351 934 343 933 "},"×":{"x_min":147.21875,"x_max":584.71875,"ha":732,"o":"m 413 319 l 584 490 l 536 538 l 366 368 l 197 538 l 147 490 l 318 319 l 147 150 l 197 101 l 366 270 l 536 101 l 584 150 l 413 319 "},"o":{"x_min":56.9375,"x_max":643.0625,"ha":700,"o":"m 336 563 b 523 252 455 563 523 456 b 373 31 523 69 438 31 b 176 316 229 31 176 209 b 336 563 176 437 219 563 m 56 284 b 348 -13 56 143 152 -13 b 643 297 555 -13 643 158 b 351 609 643 441 566 609 b 56 284 163 609 56 461 "},"5":{"x_min":70.640625,"x_max":535.921875,"ha":611,"o":"m 419 248 b 274 32 419 123 353 32 b 187 90 224 32 206 64 b 120 133 170 112 148 133 b 70 84 95 133 70 111 b 258 -13 70 30 183 -13 b 535 272 420 -13 535 107 b 301 514 535 400 448 514 b 172 493 244 514 195 502 l 198 712 b 352 701 247 706 290 701 b 490 708 391 701 435 702 l 510 798 l 502 802 b 285 788 427 794 355 788 b 144 795 237 788 190 791 l 99 416 b 266 448 169 443 219 448 b 419 248 352 448 419 391 "},"õ":{"x_min":56.703125,"x_max":644.0625,"ha":700,"o":"m 336 563 b 524 252 456 563 524 456 b 374 31 524 69 439 31 b 176 316 229 31 176 209 b 336 563 176 437 219 563 m 56 284 b 349 -14 56 142 152 -14 b 644 297 556 -14 644 158 b 351 609 644 441 567 609 b 56 284 163 609 56 460 m 422 795 b 350 821 396 795 372 805 b 250 869 322 841 291 869 b 138 733 190 869 158 814 b 176 726 147 724 160 723 b 240 792 190 771 204 792 b 315 766 264 792 290 781 b 404 722 344 746 374 722 b 526 859 468 722 509 776 b 488 867 517 864 503 869 b 422 795 468 809 453 795 "},"�":{"x_min":30.5625,"x_max":1336.109375,"ha":1367,"o":"m 605 -38 b 673 27 605 -2 636 27 b 741 -38 711 27 741 -2 b 673 -106 741 -76 711 -106 b 605 -38 636 -106 605 -76 m 561 700 b 570 663 561 679 565 670 b 580 629 576 655 580 647 b 520 577 580 597 551 577 b 461 641 497 577 461 593 b 706 823 461 723 547 823 b 940 611 852 823 940 736 b 781 379 940 518 877 440 b 694 218 751 359 694 318 l 694 156 b 673 141 694 147 684 141 b 655 156 663 141 655 147 l 655 220 b 747 444 655 280 656 361 b 830 606 802 495 830 540 b 694 777 830 688 773 777 b 561 700 618 777 561 740 m 30 406 l 683 -245 l 1336 406 l 683 1059 l 30 406 "},"❾":{"x_min":68.0625,"x_max":981.953125,"ha":1054,"o":"m 365 522 b 513 662 365 572 404 662 b 686 477 583 662 686 622 b 390 204 686 363 602 220 l 390 231 b 605 431 541 258 588 350 b 512 388 584 411 547 388 b 365 522 377 388 365 498 m 443 529 b 527 422 443 498 450 422 b 608 454 547 422 577 430 l 608 480 b 513 629 608 597 552 629 b 443 529 452 629 443 580 m 525 897 b 68 437 272 897 68 693 b 525 -20 68 184 272 -20 b 981 437 777 -20 981 184 b 525 897 981 690 779 897 "},"7":{"x_min":67,"x_max":557.28125,"ha":611,"o":"m 223 702 l 453 702 b 157 -8 350 447 246 191 l 167 -16 l 257 -12 b 557 787 332 211 410 429 l 536 802 b 435 788 514 795 485 788 l 164 788 b 98 806 118 788 122 801 b 93 802 94 806 93 805 b 67 593 92 740 78 661 l 108 588 b 223 702 137 694 182 702 "},"K":{"x_min":20.140625,"x_max":877.078125,"ha":885,"o":"m 265 169 l 265 427 b 376 376 311 426 348 411 l 602 101 b 630 5 629 66 630 30 b 637 -2 630 1 631 -2 b 730 0 665 -1 688 0 b 870 -2 784 0 805 -1 b 870 43 879 5 879 34 b 748 101 845 45 794 43 l 444 462 b 427 497 431 476 427 486 b 479 565 427 507 433 515 l 673 775 b 854 852 737 843 798 846 b 854 898 862 861 862 890 b 722 896 788 897 777 896 b 565 898 666 896 630 897 b 565 853 556 890 556 861 b 604 780 615 847 670 854 l 370 536 b 265 482 341 507 313 486 l 265 726 b 386 853 265 841 288 848 b 386 898 394 861 394 890 b 205 896 318 897 276 896 b 26 898 136 896 95 897 b 26 853 18 890 18 861 b 147 726 123 848 147 841 l 147 169 b 26 43 147 54 123 47 b 26 -2 18 34 18 5 b 206 0 94 -1 136 0 b 386 -2 276 0 316 -1 b 386 43 394 5 394 34 b 265 169 288 47 265 54 "},",":{"x_min":59.71875,"x_max":236.109375,"ha":306,"o":"m 144 131 b 70 63 101 131 70 102 b 131 2 70 19 106 6 b 181 -40 158 0 181 -8 b 59 -151 181 -69 131 -133 b 72 -185 59 -165 62 -175 b 236 -5 155 -169 236 -103 b 144 131 236 77 200 131 "},"d":{"x_min":54.171875,"x_max":696.53125,"ha":703,"o":"m 463 69 b 480 67 469 74 480 77 b 495 -14 480 34 495 -14 b 522 -14 506 -18 511 -16 b 690 41 552 10 605 31 b 690 78 698 49 698 70 b 588 180 601 85 588 112 l 588 809 b 594 955 588 899 594 955 b 576 969 594 965 588 969 b 381 931 541 955 437 935 b 390 890 379 920 381 898 b 479 776 462 885 479 892 l 479 598 b 466 585 479 588 476 585 b 358 609 461 585 404 609 b 150 526 266 609 205 578 b 54 281 90 466 54 384 b 290 -14 54 110 140 -14 b 463 69 344 -14 394 13 m 479 172 b 456 117 479 145 476 134 b 326 51 405 73 361 51 b 173 306 251 51 173 133 b 213 491 173 406 193 462 b 343 560 256 556 315 560 b 455 510 393 560 427 542 b 479 435 475 488 479 478 l 479 172 "},"¨":{"x_min":69.4375,"x_max":434.71875,"ha":526,"o":"m 304 798 b 369 733 304 762 333 733 b 434 798 405 733 434 762 b 369 865 434 834 405 865 b 304 798 333 865 304 834 m 69 798 b 134 733 69 762 98 733 b 200 798 170 733 200 762 b 134 865 200 834 170 865 b 69 798 98 865 69 834 "},"Ô":{"x_min":51.390625,"x_max":925,"ha":975,"o":"m 925 456 b 477 913 925 731 720 913 b 51 430 229 913 51 702 b 486 -14 51 156 247 -14 b 925 456 751 -14 925 178 m 459 866 b 791 430 648 866 791 719 b 513 33 791 181 672 33 b 184 453 347 33 184 187 b 459 866 184 745 333 866 m 508 1121 b 454 1121 486 1131 473 1133 b 313 987 411 1074 365 1026 b 333 958 316 974 320 966 b 481 1042 386 981 430 1005 b 629 958 527 1008 575 983 b 651 987 641 962 647 973 b 508 1121 601 1024 550 1071 "},"E":{"x_min":8.25,"x_max":723,"ha":763,"o":"m 379 501 l 253 501 l 253 778 b 303 840 253 812 270 840 l 449 840 b 606 688 553 840 575 784 b 652 695 622 685 638 688 b 621 897 645 752 624 885 b 615 901 621 899 620 901 b 547 895 592 897 581 895 l 193 895 b 14 898 193 895 83 897 b 14 852 6 890 6 860 b 135 726 111 848 135 841 l 135 169 b 14 42 135 53 111 47 b 14 -3 6 34 6 5 b 195 0 82 -1 195 0 l 493 0 b 671 -3 560 0 671 -3 b 723 228 691 66 711 158 b 674 235 707 235 692 240 b 492 53 646 135 597 53 l 303 53 b 253 113 272 53 253 76 l 253 448 l 379 448 b 506 353 497 448 502 416 b 552 353 514 345 543 345 b 549 476 550 402 549 428 b 552 595 549 523 550 553 b 506 595 543 603 514 603 b 379 501 502 519 497 501 "},"Y":{"x_min":1.296875,"x_max":796.46875,"ha":799,"o":"m 468 169 l 468 371 b 491 464 468 426 463 412 l 669 784 b 790 853 708 854 727 846 b 790 897 798 861 798 889 b 674 896 748 896 706 896 b 548 897 643 896 604 896 b 548 853 540 889 540 861 b 613 800 609 848 644 858 l 448 489 b 418 491 436 465 430 469 l 243 800 b 306 853 208 858 229 848 b 306 898 315 861 315 890 b 148 896 251 897 204 896 b 6 898 94 896 48 897 b 8 853 -1 890 0 861 b 137 759 66 848 81 854 l 320 453 b 349 359 344 411 349 411 l 349 169 b 215 43 349 54 326 47 b 215 -2 206 34 206 5 b 409 0 283 -1 333 0 b 602 -2 484 0 533 -1 b 602 43 611 5 611 34 b 468 169 491 47 468 54 "},"\"":{"x_min":87.5,"x_max":381.9375,"ha":467,"o":"m 123 593 l 161 598 b 206 848 161 598 206 826 b 158 894 206 870 194 894 b 87 825 116 894 87 855 b 123 593 87 812 123 593 m 298 594 l 336 600 b 381 850 336 600 381 828 b 333 895 381 872 369 895 b 262 826 291 895 262 857 b 298 594 262 814 298 594 "},"ê":{"x_min":51.28125,"x_max":564.640625,"ha":621,"o":"m 535 129 b 363 54 484 76 443 54 b 212 154 313 54 255 83 b 167 344 184 200 167 263 l 536 341 b 563 365 553 341 563 350 b 328 606 563 481 521 606 b 51 280 208 606 51 491 b 116 75 51 202 70 127 b 328 -13 163 19 228 -13 b 564 106 434 -13 509 34 b 535 129 560 120 552 127 m 172 391 b 328 561 198 548 295 561 b 443 415 381 561 443 531 b 423 395 443 402 438 395 l 172 391 m 345 916 b 301 916 330 920 314 919 b 147 722 260 852 197 777 b 177 698 155 709 165 701 b 321 813 231 729 277 769 b 464 698 363 770 411 731 b 496 722 477 700 489 712 b 345 916 446 777 385 851 "},"Ï":{"x_min":8.328125,"x_max":404.171875,"ha":413,"o":"m 265 169 l 265 726 b 386 852 265 841 288 848 b 386 898 394 861 394 890 b 205 895 318 897 276 895 b 26 898 136 895 95 897 b 26 852 18 890 18 861 b 147 726 123 848 147 841 l 147 169 b 26 43 147 54 123 47 b 26 -2 18 34 18 5 b 206 0 94 -1 136 0 b 386 -2 276 0 316 -1 b 386 43 394 5 394 34 b 265 169 288 47 265 54 m 8 1058 b 75 991 8 1022 38 991 b 141 1058 111 991 141 1022 b 75 1125 141 1094 111 1125 b 8 1058 38 1125 8 1094 m 270 1058 b 337 991 270 1022 301 991 b 404 1058 373 991 404 1022 b 337 1125 404 1094 373 1125 b 270 1058 301 1125 270 1094 "},"Â":{"x_min":3.46875,"x_max":957.640625,"ha":965,"o":"m 215 109 l 291 310 b 340 334 298 329 306 334 l 629 334 l 713 99 b 611 43 733 41 676 47 b 611 -2 602 34 602 5 b 793 0 662 -1 738 0 b 951 -2 850 0 900 -1 b 951 43 959 5 959 34 b 826 119 897 47 851 47 l 541 871 b 504 913 530 898 523 913 b 456 863 483 913 472 901 l 148 141 b 9 43 111 55 69 47 b 9 -2 1 34 1 5 b 133 0 61 -1 79 0 b 311 -2 190 0 259 -1 b 311 43 319 5 319 34 b 215 109 258 45 193 51 m 365 392 b 329 410 333 392 323 395 l 469 763 l 472 763 l 606 392 l 365 392 m 523 1121 b 469 1121 501 1131 488 1133 b 329 987 426 1074 380 1026 b 348 958 331 974 336 966 b 497 1042 401 981 445 1005 b 644 958 543 1008 590 983 b 666 987 656 962 662 973 b 523 1121 616 1024 565 1071 "},"❧":{"x_min":31.9375,"x_max":1502.78125,"ha":1536,"o":"m 577 -37 b 537 -80 562 -37 537 -45 l 537 -90 b 523 -52 527 -79 523 -65 b 537 -12 523 -38 526 -30 b 576 -15 548 -15 563 -15 b 713 86 686 -15 708 54 b 797 68 737 72 772 68 b 872 97 823 68 852 80 l 911 98 b 909 77 909 90 909 84 b 940 47 909 52 926 47 b 988 97 955 47 988 56 b 970 130 988 113 980 125 b 930 134 965 134 950 134 l 900 134 b 951 231 915 168 940 216 b 1033 305 975 269 1013 305 b 1083 287 1041 305 1065 295 b 1084 254 1084 279 1084 270 b 1072 223 1084 227 1079 223 b 1058 254 1062 223 1058 227 b 1059 270 1058 259 1058 263 b 1044 272 1054 270 1048 272 b 1009 234 1038 272 1009 263 b 1072 155 1009 194 1072 188 b 1063 104 1072 143 1068 122 b 1143 262 1141 145 1143 202 b 1194 254 1159 258 1179 254 b 1323 322 1255 254 1287 286 b 1191 397 1287 356 1243 397 b 1143 386 1168 397 1159 394 b 1062 548 1143 436 1138 512 b 1072 491 1066 527 1072 505 b 1009 411 1072 458 1009 454 b 1041 376 1009 386 1034 376 b 1058 379 1047 376 1051 376 b 1055 394 1055 384 1055 388 b 1070 422 1055 394 1058 422 b 1083 393 1081 422 1083 420 b 1081 359 1083 379 1081 368 b 1036 351 1063 355 1044 351 b 912 477 1008 351 975 394 l 934 477 b 994 516 966 477 994 481 b 945 568 994 555 955 568 b 915 534 926 568 915 554 b 916 515 915 527 915 520 l 880 516 b 823 545 865 533 845 545 b 709 506 781 545 744 529 l 709 515 b 669 618 709 550 687 595 b 544 672 661 626 619 672 b 529 670 538 672 536 672 b 516 711 523 686 516 695 b 530 748 516 723 522 737 l 530 740 b 570 695 530 704 556 695 b 608 734 597 695 608 715 b 606 751 608 738 608 745 l 643 748 b 573 790 629 768 612 790 b 483 695 501 790 483 744 b 486 662 483 684 484 673 b 354 556 466 656 397 631 b 281 594 337 575 294 594 b 233 529 251 594 233 566 b 281 481 233 509 250 481 b 315 505 304 481 295 505 b 329 504 320 505 326 504 b 338 506 333 504 337 505 l 338 491 b 412 334 338 472 338 402 l 381 334 b 195 536 306 363 195 425 b 236 661 195 584 206 633 b 362 729 269 691 315 712 b 502 809 415 747 466 770 b 572 926 538 849 563 897 b 690 812 619 895 670 843 b 793 608 736 737 779 663 b 934 647 844 623 841 647 b 1211 536 1041 647 1140 601 l 1431 327 l 1216 113 b 945 -16 1109 6 1018 -16 b 783 23 877 -16 836 -9 b 587 -261 754 -52 666 -195 b 498 -133 563 -211 537 -165 b 337 -54 462 -105 388 -75 b 201 108 244 -18 201 43 b 379 305 201 186 263 258 l 406 305 b 337 156 401 301 337 243 b 338 133 337 148 337 141 b 291 155 295 133 316 155 b 243 108 261 155 243 131 b 291 43 243 70 261 43 b 359 77 302 43 341 61 b 494 -5 380 49 425 11 b 488 -43 490 -19 488 -30 b 579 -131 488 -116 541 -131 b 648 -90 618 -131 636 -109 l 612 -93 b 615 -76 613 -87 615 -81 b 577 -37 615 -58 604 -37 m 650 277 b 565 322 595 277 565 313 b 647 372 565 334 595 372 b 768 325 697 372 731 355 b 650 277 730 297 704 277 m 812 666 b 720 837 793 715 743 805 b 544 993 663 918 604 956 b 472 831 541 918 511 870 b 347 762 454 813 395 780 b 156 536 238 720 156 690 b 280 334 156 447 220 376 l 225 343 l 31 405 l 31 355 l 111 325 l 33 295 l 33 247 l 225 302 l 281 309 l 283 309 b 231 268 258 291 241 279 b 154 105 206 244 154 191 b 326 -95 154 -15 250 -72 b 451 -150 368 -108 418 -130 b 569 -336 501 -179 563 -277 b 806 -33 669 -256 752 -151 b 950 -65 837 -47 891 -65 b 1245 75 1073 -65 1201 31 l 1502 326 l 1241 573 b 940 694 1184 624 1061 694 b 812 666 891 694 834 676 m 1258 322 b 1180 293 1237 302 1212 293 b 1100 323 1151 293 1126 304 b 1184 361 1123 345 1152 361 b 1258 322 1209 361 1236 345 m 465 243 b 525 112 465 197 525 168 b 505 31 525 86 515 58 b 387 166 462 44 387 81 b 461 305 387 247 454 286 b 534 280 508 305 513 304 b 504 286 525 283 513 286 b 465 243 487 286 465 283 m 858 325 b 645 423 773 386 720 423 b 581 411 620 423 598 418 b 600 462 591 425 600 440 b 550 629 600 536 563 605 b 681 463 648 629 681 515 b 679 443 681 456 680 448 b 813 511 701 465 773 511 b 850 491 823 511 836 502 b 813 495 838 494 826 495 b 777 466 786 495 777 484 b 820 426 777 434 804 426 b 952 372 869 426 898 412 b 1004 329 976 354 994 337 b 929 261 986 324 952 288 b 819 201 929 261 863 201 b 773 161 798 201 773 193 b 811 130 773 144 781 130 b 859 140 827 130 845 136 b 783 106 852 129 826 106 b 680 151 761 106 720 124 b 681 129 681 144 681 137 b 569 19 681 41 629 19 l 555 22 b 606 184 576 59 606 119 b 586 238 606 206 597 224 b 648 225 609 227 636 225 b 858 325 720 225 773 259 m 383 486 b 393 534 383 504 386 520 b 498 619 431 600 481 613 b 519 537 508 593 519 563 b 459 405 519 480 459 451 b 495 362 459 365 481 362 b 533 369 508 362 522 365 b 461 334 515 337 505 334 b 383 486 448 368 383 375 "},"Í":{"x_min":20.140625,"x_max":392.359375,"ha":413,"o":"m 265 169 l 265 726 b 386 852 265 841 288 848 b 386 898 394 861 394 890 b 205 895 318 897 276 895 b 26 898 136 895 95 897 b 26 852 18 890 18 861 b 147 726 123 848 147 841 l 147 169 b 26 43 147 54 123 47 b 26 -2 18 34 18 5 b 206 0 94 -1 136 0 b 386 -2 276 0 316 -1 b 386 43 394 5 394 34 b 265 169 288 47 265 54 m 291 1137 l 119 1018 b 98 988 101 1005 98 998 b 119 968 98 977 106 968 b 177 984 131 968 148 972 l 377 1065 b 291 1137 359 1094 330 1118 "},"´":{"x_min":122.21875,"x_max":343.0625,"ha":474,"o":"m 243 976 l 137 811 b 122 772 126 793 122 787 b 141 754 122 762 131 754 b 183 780 151 754 162 759 l 343 931 l 338 947 b 262 979 306 977 270 979 b 243 976 255 979 247 977 "},"ì":{"x_min":23.609375,"x_max":357.640625,"ha":376,"o":"m 251 169 l 251 445 b 256 604 251 515 256 604 b 238 613 256 609 250 613 b 48 573 198 598 144 586 b 51 534 45 565 48 543 b 141 440 126 526 141 519 l 141 169 b 41 43 141 54 126 50 b 41 -2 33 34 33 5 b 197 0 100 -1 136 0 b 351 -2 256 0 291 -1 b 351 43 359 5 359 34 b 251 169 266 48 251 54 m 137 931 b 116 934 131 933 123 934 b 26 902 69 934 37 911 l 23 887 l 181 736 b 222 708 204 715 213 708 b 243 723 233 708 243 716 b 234 756 243 733 241 743 l 137 931 "},"±":{"x_min":91.671875,"x_max":640.28125,"ha":732,"o":"m 640 94 l 91 94 l 91 26 l 640 26 l 640 94 m 401 475 l 401 716 l 330 716 l 330 475 l 91 475 l 91 406 l 330 406 l 330 165 l 401 165 l 401 406 l 640 406 l 640 475 l 401 475 "},"Ú":{"x_min":7.640625,"x_max":911.8125,"ha":918,"o":"m 238 726 b 366 852 238 841 259 848 b 366 898 375 861 375 890 b 179 895 298 897 252 895 b 13 898 115 895 83 897 b 13 852 5 890 5 861 b 120 726 97 848 120 841 l 120 327 b 445 -13 120 44 320 -13 b 798 409 730 -13 798 162 l 798 726 b 905 852 798 841 822 843 b 905 898 913 861 913 890 b 763 895 837 897 819 895 b 602 898 701 895 672 897 b 602 852 594 890 594 861 b 730 726 706 843 730 841 l 730 384 b 475 43 730 229 709 43 b 309 112 408 43 351 72 b 238 373 241 177 238 283 l 238 726 m 562 1137 l 390 1018 b 369 988 372 1005 369 998 b 390 968 369 977 377 968 b 448 984 402 968 419 972 l 648 1065 b 562 1137 630 1094 601 1118 "},"|":{"x_min":112.5,"x_max":173.609375,"ha":285,"o":"m 173 -322 l 173 969 l 112 969 l 112 -322 l 173 -322 "},"§":{"x_min":68.4375,"x_max":587.5625,"ha":657,"o":"m 452 123 b 348 195 426 145 391 169 b 143 437 247 254 143 309 b 201 550 143 484 165 516 b 307 479 228 527 263 504 b 512 237 408 420 512 365 b 452 123 512 193 486 154 m 172 576 b 68 370 110 526 68 459 b 323 81 68 200 216 138 b 449 -83 413 33 449 -18 b 337 -195 449 -147 402 -195 b 242 -102 277 -195 256 -155 b 185 -45 235 -76 221 -45 b 135 -98 147 -45 135 -69 b 328 -238 135 -152 193 -238 b 545 -55 472 -238 545 -147 b 483 97 545 2 532 48 b 587 304 544 147 587 211 b 332 593 587 475 438 534 b 206 758 242 641 206 693 b 318 870 206 822 253 870 b 413 777 378 870 399 830 b 470 720 420 751 434 720 b 520 773 508 720 520 744 b 327 913 520 827 462 913 b 110 730 183 913 110 822 b 172 576 110 672 124 625 "},"Ý":{"x_min":1.296875,"x_max":796.46875,"ha":799,"o":"m 468 169 l 468 371 b 491 464 468 426 463 412 l 669 784 b 790 853 708 854 727 846 b 790 897 798 861 798 889 b 674 896 748 896 706 896 b 548 897 643 896 604 896 b 548 853 540 889 540 861 b 613 800 609 848 644 858 l 448 489 b 418 491 436 465 430 469 l 243 800 b 306 853 208 858 229 848 b 306 898 315 861 315 890 b 148 896 251 897 204 896 b 6 898 94 896 48 897 b 8 853 -1 890 0 861 b 137 759 66 848 81 854 l 320 453 b 349 359 344 411 349 411 l 349 169 b 215 43 349 54 326 47 b 215 -2 206 34 206 5 b 409 0 283 -1 333 0 b 602 -2 484 0 533 -1 b 602 43 611 5 611 34 b 468 169 491 47 468 54 m 499 1139 l 327 1019 b 306 990 309 1007 306 1000 b 327 969 306 979 315 969 b 386 986 340 969 356 973 l 586 1066 b 499 1139 567 1096 538 1119 "},"❻":{"x_min":68.0625,"x_max":981.953125,"ha":1054,"o":"m 679 345 b 529 205 679 295 638 205 b 361 390 461 205 361 245 b 654 663 361 504 441 647 l 654 636 b 438 436 502 609 454 518 b 530 479 458 456 495 479 b 679 345 665 479 679 369 m 601 338 b 515 445 601 369 594 445 b 436 413 495 445 465 437 b 434 387 434 406 434 395 b 529 238 434 270 490 238 b 601 338 590 238 601 287 m 525 897 b 68 437 272 897 68 693 b 525 -20 68 184 272 -20 b 981 437 777 -20 981 184 b 525 897 981 690 779 897 "},"b":{"x_min":10.0625,"x_max":633.328125,"ha":685,"o":"m 231 546 b 218 553 222 538 218 541 l 218 809 b 223 955 218 899 223 955 b 205 969 223 965 218 969 b 11 931 170 955 66 935 b 19 890 8 920 11 898 b 108 776 91 885 108 892 l 108 98 b 102 0 108 44 106 19 b 133 -16 109 -11 116 -16 b 165 16 141 -9 155 3 b 204 19 180 33 188 33 b 326 -14 236 -7 276 -14 b 633 335 468 -14 633 115 b 387 609 633 505 508 609 b 231 546 327 609 275 585 m 241 503 b 359 548 277 535 319 548 b 513 310 444 548 513 445 b 318 33 513 152 450 33 b 218 98 275 33 245 63 l 218 445 b 241 503 218 474 223 487 "},"q":{"x_min":48.609375,"x_max":696.53125,"ha":699,"o":"m 480 -154 b 380 -279 480 -269 465 -275 b 380 -325 372 -287 372 -316 b 536 -322 438 -323 475 -322 b 690 -325 595 -322 630 -323 b 690 -279 698 -316 698 -287 b 590 -154 605 -275 590 -269 l 590 578 b 569 613 590 598 584 613 b 540 587 559 613 551 602 b 500 567 522 562 516 558 b 343 609 455 597 401 609 b 48 287 173 609 48 470 b 336 -14 48 158 136 -14 b 443 6 373 -14 418 -7 b 480 0 475 26 480 28 l 480 -154 m 447 510 b 480 426 475 480 480 459 l 480 106 b 461 65 480 81 479 74 b 369 47 427 48 390 47 b 168 315 288 47 168 105 b 337 562 168 459 226 562 b 447 510 379 562 416 544 "},"Ö":{"x_min":51.390625,"x_max":925,"ha":975,"o":"m 925 456 b 477 913 925 731 720 913 b 51 430 229 913 51 702 b 486 -13 51 156 247 -13 b 925 456 751 -13 925 179 m 459 866 b 791 430 648 866 791 719 b 513 33 791 181 672 33 b 184 454 347 33 184 187 b 459 866 184 745 333 866 m 702 980 b 769 913 702 944 733 913 b 836 980 805 913 836 944 b 769 1047 836 1016 805 1047 b 702 980 733 1047 702 1016 m 134 980 b 201 913 134 944 165 913 b 268 980 237 913 268 944 b 201 1047 268 1016 237 1047 b 134 980 165 1047 134 1016 "},"z":{"x_min":51.828125,"x_max":561.5625,"ha":589,"o":"m 85 613 b 76 605 81 613 76 608 b 56 422 75 543 67 490 b 101 418 67 416 85 413 b 214 548 129 519 172 548 l 406 548 l 64 44 b 51 16 53 27 51 23 b 83 0 51 6 62 0 l 517 0 b 561 188 524 43 537 108 b 519 198 551 193 536 198 l 501 158 b 364 47 468 84 444 47 l 179 47 l 512 537 b 543 595 536 573 543 590 b 526 605 543 601 536 605 b 435 595 519 605 475 595 l 153 595 b 85 613 107 595 108 608 "},"ã":{"x_min":49.859375,"x_max":632.109375,"ha":635,"o":"m 407 66 b 514 -14 415 37 439 -14 b 632 48 582 -14 632 41 b 614 72 632 58 619 72 b 571 49 605 72 600 49 b 515 167 516 49 515 103 l 515 374 b 305 609 515 572 407 609 b 76 455 191 609 76 530 b 124 406 76 422 92 406 b 186 452 165 406 186 434 b 181 477 186 462 184 472 b 179 505 180 481 179 490 b 294 563 179 548 241 563 b 407 383 341 563 407 540 b 398 366 407 373 402 367 l 279 337 b 49 135 145 303 49 230 b 224 -14 49 26 127 -14 b 376 44 288 -14 315 -3 l 404 66 l 407 66 m 407 323 l 407 138 b 387 102 407 120 398 110 b 265 42 351 73 304 42 b 165 141 195 42 165 98 b 297 294 165 203 194 266 l 407 323 m 393 795 b 320 821 366 795 343 805 b 220 869 293 841 262 869 b 109 733 161 869 129 814 b 147 726 117 724 131 723 b 211 792 161 771 174 792 b 286 766 234 792 261 781 b 375 722 315 746 344 722 b 496 859 439 722 479 776 b 458 867 487 864 473 869 b 393 795 439 809 423 795 "},"æ":{"x_min":54.140625,"x_max":899.984375,"ha":954,"o":"m 516 351 b 679 563 527 469 584 563 b 794 466 745 563 794 511 b 516 351 794 381 729 354 m 413 298 b 406 156 413 229 412 183 b 269 44 386 101 313 44 b 154 148 191 44 154 88 b 205 234 154 179 170 209 b 413 298 247 266 316 290 m 368 533 b 413 347 399 500 412 456 b 141 284 293 337 201 319 b 54 141 91 255 54 197 b 122 11 54 83 73 37 b 252 -13 151 -6 202 -13 b 438 72 304 -13 373 6 b 472 81 454 88 461 94 b 681 -13 501 48 555 -13 b 894 115 773 -13 854 40 b 866 137 888 122 877 136 b 701 54 824 88 776 54 b 515 302 597 54 515 177 b 899 470 836 306 899 358 b 680 609 899 518 838 609 b 483 512 601 609 529 575 b 291 609 431 605 324 609 b 69 468 177 609 69 548 b 124 405 69 440 81 405 b 179 451 159 405 179 429 b 174 476 179 461 177 470 b 170 504 172 480 170 490 b 277 563 170 544 223 563 b 368 533 306 563 347 554 "},"®":{"x_min":47.21875,"x_max":844.453125,"ha":892,"o":"m 445 771 b 788 424 638 771 788 617 b 445 76 788 231 637 76 b 102 424 251 76 102 233 b 445 771 102 617 251 771 m 445 31 b 844 424 662 31 844 208 b 445 816 844 641 662 816 b 47 424 229 816 47 641 b 445 31 47 209 227 31 m 365 615 b 276 617 343 615 301 616 b 276 584 270 612 270 590 b 331 527 320 580 331 571 l 331 321 b 276 265 331 277 320 269 b 276 231 270 259 270 237 b 365 234 301 233 343 234 b 452 231 387 234 427 233 b 452 265 458 237 458 259 b 397 321 408 269 397 277 l 397 399 b 448 394 404 399 443 398 l 515 283 b 600 230 538 242 572 230 b 650 240 616 230 633 233 b 644 263 651 248 650 258 b 584 296 622 259 600 270 l 518 410 b 597 513 561 424 597 459 b 465 617 597 555 569 617 b 365 615 437 617 387 615 m 522 513 b 455 433 522 449 497 433 l 397 433 l 397 537 b 452 584 397 562 418 584 b 522 513 500 584 522 560 "},"✔":{"x_min":83.328125,"x_max":737.5,"ha":821,"o":"m 187 308 b 155 263 176 308 166 281 b 119 290 141 273 129 290 b 83 227 105 290 83 252 b 219 -13 83 227 106 -13 b 277 9 248 -13 268 -6 b 737 780 563 500 737 752 b 704 795 737 788 731 795 b 580 745 647 795 600 783 b 247 173 466 525 268 173 b 187 308 225 173 209 308 "},"❹":{"x_min":68.0625,"x_max":981.953125,"ha":1054,"o":"m 586 545 l 586 400 l 662 400 l 658 351 l 586 351 l 586 283 b 616 248 586 256 591 248 l 638 248 b 645 241 644 248 645 244 l 645 213 b 550 215 645 213 587 215 b 463 213 516 215 463 213 l 463 243 b 470 248 463 244 465 248 l 491 248 b 522 281 516 248 522 252 l 522 351 l 322 351 l 318 368 b 530 670 379 459 473 593 l 572 658 b 395 400 509 561 427 447 l 522 400 l 522 505 b 531 530 522 515 529 526 b 568 559 543 543 558 559 b 586 545 576 559 586 556 m 525 897 b 68 437 272 897 68 693 b 525 -20 68 184 272 -20 b 981 437 777 -20 981 184 b 525 897 981 690 779 897 "},"É":{"x_min":8.25,"x_max":723,"ha":763,"o":"m 379 501 l 253 501 l 253 778 b 303 840 253 812 270 840 l 449 840 b 606 688 553 840 575 784 b 652 695 622 685 638 688 b 621 897 645 752 624 885 b 615 901 621 899 620 901 b 547 895 592 897 581 895 l 193 895 b 14 898 193 895 83 897 b 14 852 6 890 6 860 b 135 726 111 848 135 841 l 135 169 b 14 42 135 53 111 47 b 14 -3 6 34 6 5 b 195 0 82 -1 195 0 l 493 0 b 671 -3 560 0 671 -3 b 723 228 691 66 711 158 b 674 235 707 237 692 240 b 492 53 646 135 597 53 l 303 53 b 253 113 272 53 253 76 l 253 448 l 379 448 b 506 353 497 448 502 416 b 552 353 514 345 543 345 b 549 476 550 402 549 428 b 552 595 549 523 550 553 b 506 595 543 603 514 603 b 379 501 502 519 497 501 m 486 1138 l 314 1019 b 293 990 296 1006 293 999 b 314 969 293 978 302 969 b 372 985 327 969 343 973 l 572 1066 b 486 1138 554 1095 525 1119 "},"~":{"x_min":36,"x_max":580,"ha":624,"o":"m 36 290 b 59 284 42 286 51 284 b 205 386 91 345 157 386 b 307 341 240 386 272 366 b 413 295 340 316 381 295 b 580 462 446 295 536 313 b 556 470 574 468 567 470 b 418 377 525 401 457 377 b 318 423 388 377 356 395 b 214 468 283 448 246 468 b 36 290 129 468 54 380 "},"³":{"x_min":52.453125,"x_max":380.234375,"ha":426,"o":"m 258 866 b 159 765 258 809 220 773 b 162 728 155 751 153 736 b 189 730 173 729 180 730 b 294 646 223 730 294 725 b 192 539 294 557 233 539 b 128 564 148 539 135 547 b 87 587 120 580 106 587 b 52 555 69 587 52 575 b 187 497 52 512 149 497 b 380 657 298 497 380 561 b 269 779 380 737 314 775 b 339 873 309 801 339 833 b 221 955 339 925 294 955 b 63 865 101 955 63 889 b 95 840 63 861 69 840 b 133 880 127 840 126 865 b 205 914 142 903 181 914 b 258 866 227 914 258 903 "},"₧":{"x_min":22.515625,"x_max":1184.890625,"ha":1236,"o":"m 132 88 b 64 34 132 53 115 34 l 30 34 b 22 24 25 34 22 30 l 22 0 l 23 -1 b 185 0 23 -1 140 0 b 343 -1 233 0 343 -1 l 344 0 l 344 24 b 335 34 344 30 340 34 l 301 34 b 232 88 253 34 232 51 l 232 365 b 296 351 248 356 262 351 b 533 489 429 351 500 414 l 608 489 l 608 111 b 698 -13 608 22 640 -13 b 818 34 741 -13 780 3 l 821 0 b 851 1 833 1 844 1 b 875 -1 859 1 866 1 b 990 -12 907 -8 946 -12 b 1184 142 1061 -12 1184 18 b 997 327 1184 244 1098 283 b 897 425 929 357 897 372 b 1002 518 897 496 954 518 b 1141 369 1029 518 1104 503 l 1171 370 l 1155 521 b 1001 555 1132 535 1065 555 b 821 405 901 555 821 492 b 966 249 821 312 873 288 b 1100 115 1068 205 1100 169 b 986 21 1100 50 1034 21 b 889 57 940 21 901 45 b 841 179 855 89 844 149 l 812 177 l 816 79 b 743 56 790 62 769 56 b 700 170 708 56 700 93 l 700 489 l 818 489 b 847 504 830 489 847 493 l 847 529 b 839 538 847 535 844 538 l 700 538 l 700 730 l 629 706 l 629 681 b 551 539 629 598 612 549 b 560 609 557 563 560 586 b 311 817 560 681 519 817 b 173 811 282 817 237 816 b 22 805 112 809 39 805 l 22 781 b 30 773 22 777 22 773 b 76 774 36 773 66 774 b 132 718 98 774 132 767 l 132 88 m 232 759 b 303 775 254 767 280 775 b 462 585 380 775 462 743 b 290 392 462 450 400 392 b 232 399 262 392 247 397 l 232 759 "},"¡":{"x_min":126.390625,"x_max":273.609375,"ha":400,"o":"m 273 536 b 200 609 273 576 240 609 b 126 536 159 609 126 576 b 200 462 126 495 159 462 b 273 536 240 462 273 495 m 200 -318 b 273 -216 233 -318 273 -291 b 241 51 273 -119 254 -70 b 219 313 230 159 222 284 b 200 331 218 322 213 331 b 180 304 186 331 181 319 b 159 51 177 284 176 201 b 126 -216 144 -68 126 -126 b 200 -318 126 -291 166 -318 "},"[":{"x_min":150,"x_max":450.6875,"ha":494,"o":"m 150 -268 l 444 -268 b 444 -226 452 -259 452 -234 b 243 -69 252 -211 243 -190 l 243 779 b 444 934 243 900 254 920 b 444 976 452 943 452 968 l 150 976 l 150 -268 "},"L":{"x_min":17.96875,"x_max":702,"ha":731,"o":"m 204 0 l 499 0 b 665 -3 538 0 665 -3 b 702 228 679 66 693 156 b 656 235 688 234 672 237 b 485 53 628 135 590 53 l 328 53 b 263 123 288 53 263 80 l 263 726 b 383 852 263 841 286 848 b 383 898 392 860 392 890 b 203 895 315 897 274 895 b 24 898 133 895 93 897 b 24 852 15 890 15 860 b 145 726 121 848 145 841 l 145 169 b 24 42 145 53 121 47 b 24 -3 15 34 15 5 b 204 0 92 -1 204 0 "}," ":{"x_min":0,"x_max":0,"ha":347},"%":{"x_min":79,"x_max":830.8125,"ha":885,"o":"m 154 552 b 279 749 154 632 211 749 b 339 664 304 749 339 734 b 215 463 339 584 291 463 b 154 552 190 463 154 480 m 505 723 b 357 757 480 723 432 723 b 263 792 343 774 302 792 b 79 571 163 792 79 694 b 206 420 79 500 120 420 b 384 666 323 420 384 577 b 380 700 384 678 383 691 b 491 671 407 685 459 671 b 640 698 533 671 587 677 l 141 3 l 188 -17 l 758 775 l 714 798 b 505 723 671 739 564 723 m 525 135 b 654 -17 525 62 569 -17 b 830 228 769 -17 830 135 b 711 355 830 330 766 355 b 525 135 608 355 525 249 m 601 114 b 726 312 601 195 658 312 b 784 227 746 312 784 299 b 662 26 784 149 739 26 b 601 114 636 26 601 42 "},"P":{"x_min":17.359375,"x_max":704.171875,"ha":738,"o":"m 144 726 l 144 169 b 23 43 144 54 120 47 b 23 -2 15 35 15 5 b 204 0 91 -1 133 0 b 404 -2 281 0 334 -1 b 404 43 412 5 412 35 b 262 169 295 48 262 54 l 262 405 b 375 391 293 396 326 391 b 704 675 627 391 704 557 b 393 905 704 757 650 905 b 202 896 356 905 258 896 b 23 898 133 896 93 897 b 23 853 15 890 15 861 b 144 726 120 848 144 841 m 262 769 b 383 858 262 810 283 858 b 575 650 479 858 575 826 b 368 439 575 500 502 439 b 262 446 333 439 277 441 l 262 769 "},"À":{"x_min":3.46875,"x_max":957.640625,"ha":965,"o":"m 215 109 l 291 311 b 340 334 298 329 306 334 l 629 334 l 713 99 b 611 43 733 41 676 47 b 611 -2 602 34 602 5 b 793 0 662 -1 738 0 b 951 -2 850 0 900 -1 b 951 43 959 5 959 34 b 826 119 897 47 851 47 l 541 872 b 504 913 530 898 523 913 b 456 863 483 913 472 901 l 148 141 b 9 43 111 55 69 47 b 9 -2 1 34 1 5 b 133 0 61 -1 79 0 b 311 -2 190 0 259 -1 b 311 43 319 5 319 34 b 215 109 258 45 193 51 m 365 393 b 329 411 333 393 323 395 l 469 763 l 472 763 l 606 393 l 365 393 m 394 1136 b 288 1073 345 1119 313 1097 l 502 986 b 562 969 531 973 551 969 b 583 990 573 969 583 979 b 562 1019 583 999 577 1008 l 394 1136 "},"_":{"x_min":5.5625,"x_max":669.4375,"ha":675,"o":"m 661 -152 l 13 -152 b 13 -213 2 -163 2 -202 l 661 -213 b 661 -152 672 -202 672 -163 "},"ñ":{"x_min":29.6875,"x_max":726.703125,"ha":744,"o":"m 255 497 b 241 497 251 491 241 477 b 248 602 241 538 248 602 b 231 613 248 609 242 613 b 40 573 192 598 135 585 b 42 534 37 565 40 542 b 133 440 117 527 133 520 l 133 169 b 35 42 133 55 119 49 b 35 -3 27 34 27 5 b 188 0 92 -1 128 0 b 326 -3 242 0 268 -1 b 326 42 334 5 334 34 b 242 169 255 49 242 55 l 242 397 b 266 455 242 426 255 442 b 428 537 319 506 373 537 b 501 487 455 537 485 519 b 518 380 515 459 518 422 l 518 169 b 432 42 518 55 504 49 b 432 -3 425 34 425 5 b 574 0 490 -1 518 0 b 721 -3 631 0 661 -1 b 721 42 728 5 728 34 b 628 169 643 49 628 55 l 628 376 b 590 562 628 452 622 519 b 475 609 567 592 524 609 b 255 497 407 609 340 591 m 481 795 b 408 821 454 795 430 805 b 308 869 380 841 350 869 b 197 733 248 869 216 814 b 234 726 205 724 219 723 b 298 792 248 771 262 792 b 373 766 322 792 348 781 b 462 722 403 746 432 722 b 584 859 526 722 567 776 b 546 867 575 864 561 869 b 481 795 526 809 511 795 "},"+":{"x_min":91.671875,"x_max":640.28125,"ha":732,"o":"m 401 356 l 401 598 l 330 598 l 330 356 l 91 356 l 91 288 l 330 288 l 330 47 l 401 47 l 401 288 l 640 288 l 640 356 l 401 356 "},"½":{"x_min":93.921875,"x_max":872,"ha":917,"o":"m 186 792 b 206 735 203 792 206 780 l 206 555 b 107 477 206 484 163 480 b 107 436 100 466 102 445 b 241 438 149 438 191 438 b 357 436 286 438 316 438 b 357 477 363 446 363 466 b 281 555 310 480 281 484 l 281 886 b 256 886 273 893 263 889 b 93 809 195 849 159 832 b 107 771 93 792 96 780 b 186 792 142 784 168 792 m 599 199 b 636 228 613 199 632 203 b 639 268 638 238 634 256 b 706 298 646 285 663 298 b 775 223 730 298 775 288 b 679 66 775 148 741 116 b 560 -110 613 14 560 -43 l 845 -110 b 872 20 856 -74 865 -29 b 838 27 863 24 852 27 b 761 -65 823 -11 804 -65 l 646 -65 b 737 59 659 -19 679 17 b 860 224 815 114 860 160 b 711 339 860 313 780 339 b 563 232 602 339 563 268 b 599 199 563 214 582 199 m 739 834 l 103 -75 l 160 -86 l 797 823 l 739 834 "},"Æ":{"x_min":3,"x_max":1159.9375,"ha":1201,"o":"m 654 0 l 1123 0 b 1159 231 1129 77 1144 159 l 1118 238 b 943 53 1090 138 1048 53 l 761 53 b 711 102 730 53 711 65 l 711 456 l 853 456 b 923 395 900 456 915 434 l 930 352 b 943 342 932 347 934 342 l 975 342 l 978 347 b 966 480 975 370 966 433 b 978 612 966 526 973 577 b 973 617 978 615 976 617 l 943 617 b 932 606 937 617 933 612 l 923 565 b 853 503 914 526 901 503 l 711 503 l 711 778 b 761 840 711 810 728 840 l 900 840 b 1059 674 1005 840 1029 770 l 1100 681 b 1071 895 1090 738 1078 820 l 762 895 l 655 895 l 411 897 l 408 895 l 408 867 b 419 858 408 862 411 858 l 462 855 b 501 801 489 852 518 834 l 141 117 b 48 40 109 55 100 44 l 16 37 b 3 26 8 35 3 33 l 3 0 l 5 -3 b 130 0 5 -3 82 0 b 279 -3 184 0 279 -3 l 280 0 l 280 28 b 272 37 280 31 278 35 l 232 40 b 205 94 182 42 179 42 l 348 369 l 596 369 l 596 102 b 519 40 596 63 576 44 l 483 37 b 472 24 476 35 472 31 l 472 0 l 475 -3 b 654 0 475 -3 604 0 m 376 423 l 589 830 b 596 798 594 827 596 815 l 596 423 l 376 423 "},"₣":{"x_min":28.78125,"x_max":601,"ha":608,"o":"m 424 499 l 263 499 l 263 696 b 314 741 263 732 284 741 l 412 741 b 563 567 502 741 542 667 l 601 572 l 573 795 l 316 795 l 207 795 b 30 798 189 795 30 798 l 28 795 l 28 770 b 38 759 28 763 32 759 l 80 759 b 152 696 139 759 152 745 l 152 499 l 31 499 l 31 445 l 152 445 l 152 379 l 31 379 l 31 325 l 152 325 l 152 100 b 76 39 152 57 131 39 l 39 39 b 28 28 32 39 28 35 l 28 1 l 30 -1 b 205 1 30 -1 151 1 b 384 -1 255 1 384 -1 l 387 1 l 387 28 b 377 39 387 35 382 39 l 339 39 b 263 100 282 39 263 61 l 263 325 l 424 325 l 424 379 l 263 379 l 263 445 l 424 445 l 424 499 "},"Ë":{"x_min":8.25,"x_max":723,"ha":763,"o":"m 379 501 l 253 501 l 253 778 b 303 840 253 812 270 840 l 449 840 b 606 688 553 840 575 784 b 652 695 622 685 638 688 b 621 897 645 752 624 885 b 615 901 621 899 620 901 b 547 895 592 897 581 895 l 193 895 b 14 898 193 895 83 897 b 14 852 6 890 6 860 b 135 726 111 848 135 841 l 135 169 b 14 42 135 53 111 47 b 14 -3 6 34 6 5 b 195 0 82 -1 195 0 l 493 0 b 671 -3 560 0 671 -3 b 723 228 691 66 711 158 b 674 235 707 237 692 240 b 492 53 646 135 597 53 l 303 53 b 253 113 272 53 253 76 l 253 448 l 379 448 b 506 353 497 448 502 416 b 552 353 514 345 543 345 b 549 476 550 402 549 428 b 552 595 549 523 550 553 b 506 595 543 603 514 603 b 379 501 502 519 497 501 m 188 1042 b 254 976 188 1006 218 976 b 321 1042 290 976 321 1006 b 254 1109 321 1078 290 1109 b 188 1042 218 1109 188 1078 m 450 1042 b 517 976 450 1006 481 976 b 583 1042 553 976 583 1006 b 517 1109 583 1078 553 1109 b 450 1042 481 1109 450 1078 "},"'":{"x_min":73.609375,"x_max":193.0625,"ha":264,"o":"m 109 593 l 147 598 b 193 848 147 598 193 826 b 144 894 193 870 180 894 b 73 825 102 894 73 855 b 109 593 73 812 109 593 "},"❽":{"x_min":68.0625,"x_max":981.953125,"ha":1054,"o":"m 516 433 b 437 318 494 420 437 365 b 527 234 437 256 494 234 b 619 315 579 234 619 258 b 556 412 619 350 612 384 l 516 433 m 658 569 b 572 459 658 548 654 506 l 626 430 b 694 329 669 406 694 372 b 526 204 694 284 651 204 b 372 318 465 204 372 227 b 486 448 372 369 433 419 l 469 456 b 393 559 413 483 393 519 b 531 662 393 622 459 662 b 658 569 594 662 658 623 m 526 631 b 454 572 486 631 454 612 b 515 491 454 550 463 519 l 543 476 b 597 569 565 490 597 527 b 526 631 597 606 575 631 m 525 897 b 68 437 272 897 68 693 b 525 -20 68 184 272 -20 b 981 437 777 -20 981 184 b 525 897 981 690 779 897 "},"ª":{"x_min":43.0625,"x_max":391.671875,"ha":426,"o":"m 326 497 b 391 527 352 497 379 513 b 377 550 391 538 387 545 b 361 543 373 545 366 543 b 341 622 348 543 341 565 l 341 726 b 194 884 341 856 262 884 b 50 783 136 884 50 838 b 86 748 50 762 65 748 b 122 777 112 748 122 766 b 119 794 122 784 120 791 b 116 812 118 797 116 802 b 191 850 116 834 145 850 b 266 734 223 850 266 838 l 186 713 b 43 594 98 690 43 652 b 150 497 43 534 91 497 b 268 551 195 497 220 509 b 326 497 272 526 291 497 m 266 697 l 266 587 b 177 541 230 555 206 541 b 115 598 130 541 115 569 b 266 697 115 641 148 666 "},"ð":{"x_min":46.640625,"x_max":620.71875,"ha":675,"o":"m 46 289 b 320 -13 46 144 148 -13 b 620 329 476 -13 620 94 b 410 809 620 531 530 690 l 385 834 l 520 924 l 490 969 l 342 870 b 195 969 294 909 243 942 l 173 939 b 267 858 206 916 238 888 l 289 835 l 143 737 l 174 693 l 326 794 b 449 590 377 730 419 663 b 344 609 415 604 380 609 b 46 289 230 609 46 529 m 344 36 b 166 312 245 36 166 154 b 341 561 166 418 200 561 b 481 494 401 561 449 534 b 504 309 498 434 504 373 b 344 36 504 84 409 36 "},"T":{"x_min":9.71875,"x_max":806.953125,"ha":815,"o":"m 486 169 l 486 755 b 563 841 486 802 513 841 l 650 841 b 759 712 726 841 736 819 b 806 719 775 712 790 711 b 788 933 795 790 788 865 b 747 927 775 931 761 931 b 716 895 747 919 745 895 l 112 895 b 83 927 83 895 83 919 b 40 933 72 930 61 934 b 9 719 34 865 26 793 b 56 712 22 712 38 711 b 179 841 84 823 102 841 l 288 841 b 368 759 340 841 368 802 l 368 169 b 233 43 368 54 344 47 b 233 -2 225 34 225 5 b 427 0 301 -1 351 0 b 620 -2 502 0 551 -1 b 620 43 629 5 629 34 b 486 169 509 47 486 54 "},"Þ":{"x_min":9.03125,"x_max":684.71875,"ha":732,"o":"m 254 169 l 254 220 b 359 208 275 213 311 208 b 684 476 606 208 684 371 b 379 726 684 574 636 726 b 254 720 352 726 304 723 l 254 726 b 375 852 254 841 277 848 b 375 898 383 860 383 890 b 194 895 306 896 265 895 b 15 898 125 895 84 896 b 15 852 6 890 6 860 b 136 726 112 848 136 841 l 136 169 b 15 42 136 53 112 46 b 15 -3 6 34 6 5 b 195 0 83 -1 125 0 b 375 -3 265 0 305 -1 b 375 42 383 5 383 34 b 254 169 277 46 254 53 m 254 664 b 377 680 283 673 351 680 b 555 476 459 680 555 642 b 352 253 555 296 452 253 b 254 260 300 253 266 256 l 254 664 "},"j":{"x_min":-66.671875,"x_max":276.390625,"ha":378,"o":"m 156 440 l 156 105 b 81 -248 156 -77 151 -248 b 38 -233 66 -248 48 -243 b -22 -197 25 -219 8 -197 b -66 -250 -37 -197 -66 -225 b 9 -309 -66 -290 -16 -309 b 162 -262 38 -309 111 -305 b 266 152 227 -209 266 -109 l 266 445 b 272 604 266 515 272 604 b 254 613 272 609 265 613 b 63 573 215 598 159 586 b 66 534 61 565 63 543 b 156 440 141 527 156 519 m 137 831 b 204 759 137 795 170 759 b 276 826 243 759 276 795 b 209 898 276 859 247 898 b 137 831 176 898 137 865 "},"1":{"x_min":123.609375,"x_max":527.078125,"ha":611,"o":"m 400 169 l 400 609 b 404 795 400 693 401 777 b 395 802 404 801 400 802 b 123 663 318 754 245 720 b 144 626 125 647 131 634 b 265 661 206 652 238 661 b 293 580 287 661 293 627 l 293 169 b 172 43 293 54 269 47 b 172 -2 163 34 163 5 b 351 0 240 -1 281 0 b 520 -2 418 0 451 -1 b 520 43 529 5 529 34 b 400 169 423 47 400 54 "},"❷":{"x_min":68.0625,"x_max":981.953125,"ha":1054,"o":"m 419 522 b 381 555 401 522 381 537 b 531 663 381 593 422 663 b 680 548 601 663 680 636 b 556 381 680 484 634 437 b 465 256 498 340 465 300 l 577 256 b 658 351 622 256 644 311 l 691 343 b 665 212 680 301 670 252 l 379 212 b 505 390 379 279 440 337 b 600 545 569 438 600 470 b 525 629 600 611 550 629 b 451 588 465 629 451 608 b 456 555 451 577 456 566 b 419 522 456 533 431 522 m 525 897 b 68 437 272 897 68 693 b 525 -20 68 184 272 -20 b 981 437 777 -20 981 184 b 525 897 981 690 779 897 "},"ä":{"x_min":50,"x_max":631.9375,"ha":635,"o":"m 406 66 b 513 -13 415 37 438 -13 b 631 48 581 -13 631 41 b 613 72 631 58 619 72 b 570 50 605 72 600 50 b 515 168 516 50 515 104 l 515 375 b 305 609 515 572 406 609 b 76 455 191 609 76 530 b 125 406 76 422 93 406 b 186 452 165 406 186 434 b 181 477 186 462 184 472 b 179 505 180 481 179 490 b 294 563 179 548 241 563 b 406 383 341 563 406 540 b 398 366 406 373 402 368 l 279 337 b 50 136 145 304 50 230 b 225 -13 50 26 127 -13 b 376 44 288 -13 315 -2 l 404 66 l 406 66 m 406 323 l 406 138 b 387 102 406 120 398 111 b 265 43 351 73 304 43 b 165 141 195 43 165 98 b 297 294 165 204 194 266 l 406 323 m 350 798 b 415 733 350 762 379 733 b 480 798 451 733 480 762 b 415 865 480 834 451 865 b 350 798 379 865 350 834 m 115 798 b 180 733 115 762 144 733 b 245 798 216 733 245 762 b 180 865 245 834 216 865 b 115 798 144 865 115 834 "},"<":{"x_min":57.640625,"x_max":623.796875,"ha":676,"o":"m 169 331 l 609 491 b 609 561 627 510 629 552 l 68 365 b 68 298 54 340 54 317 l 609 101 b 609 170 629 109 627 151 l 169 331 "},"£":{"x_min":21.265625,"x_max":592.09375,"ha":611,"o":"m 97 392 l 180 392 l 180 369 b 87 88 180 250 165 144 b 21 22 51 68 21 47 b 68 -13 21 1 43 -13 b 121 32 97 -13 121 1 b 174 64 121 46 128 64 b 408 -13 289 64 290 -13 b 592 101 494 -13 560 33 b 568 115 586 111 579 114 b 432 58 533 68 471 58 b 193 119 340 58 355 119 b 292 392 237 161 290 235 l 433 392 b 465 408 447 392 465 397 l 465 438 b 455 446 465 443 462 446 l 292 446 l 292 539 b 401 740 292 653 340 740 b 467 710 430 740 450 725 b 514 685 482 696 494 685 b 568 739 546 685 568 706 b 462 803 568 786 493 803 b 287 726 393 803 333 774 b 180 472 215 656 180 583 l 180 446 l 121 446 b 89 418 97 446 89 429 l 89 400 b 97 392 89 393 90 392 "},"¹":{"x_min":94.4375,"x_max":362.5,"ha":426,"o":"m 187 861 b 206 804 204 861 206 848 l 206 623 b 108 545 206 552 163 548 b 108 505 101 534 102 513 b 241 506 150 506 191 506 b 358 505 287 506 316 506 b 358 545 363 515 363 534 b 281 623 311 548 281 552 l 281 955 b 256 955 273 962 263 958 b 94 877 195 918 159 901 b 108 840 94 861 97 848 b 187 861 143 852 169 861 "},"t":{"x_min":34.71875,"x_max":418.0625,"ha":439,"o":"m 59 595 b 34 568 40 595 34 579 l 34 550 b 41 541 34 543 36 541 l 123 541 l 123 123 b 230 -13 123 25 166 -13 b 418 77 294 -13 363 16 b 393 101 415 91 406 100 b 279 62 356 73 315 62 b 233 190 241 62 233 104 l 233 541 l 377 541 b 411 559 391 541 411 547 l 411 587 b 400 595 411 593 406 595 l 233 595 l 233 650 b 238 795 233 740 238 795 b 220 809 238 805 233 809 l 140 772 b 120 755 131 768 119 765 b 123 595 123 723 123 711 l 59 595 "},"¬":{"x_min":49.734375,"x_max":768.0625,"ha":832,"o":"m 693 137 b 768 137 719 125 744 127 l 768 509 l 55 509 b 55 448 45 484 50 465 l 693 448 l 693 137 "},"ù":{"x_min":29.8125,"x_max":713.15625,"ha":729,"o":"m 301 -14 b 480 69 355 -14 411 13 b 497 67 486 74 497 77 b 512 -14 497 34 512 -14 b 538 -14 522 -18 527 -18 b 706 41 569 10 622 31 b 706 78 715 49 715 70 b 605 180 618 85 605 112 l 605 447 b 611 588 605 488 611 588 b 599 598 611 594 606 598 b 551 595 593 597 572 595 b 409 598 506 595 461 597 b 409 552 401 590 401 560 b 495 440 477 548 495 531 l 495 172 b 473 117 495 145 493 134 b 343 51 422 73 377 51 b 231 194 301 51 231 70 l 231 447 b 237 588 231 488 237 588 b 226 598 237 594 233 598 b 177 595 219 597 198 595 b 36 598 133 595 87 597 b 36 552 27 590 27 560 b 122 441 102 547 122 531 l 122 174 b 301 -14 122 78 163 -14 m 304 931 b 283 934 298 933 290 934 b 193 902 236 934 204 910 l 190 887 l 348 735 b 388 708 370 715 380 708 b 409 723 399 708 409 716 b 401 756 409 733 408 742 l 304 931 "},"W":{"x_min":2.078125,"x_max":1320.140625,"ha":1325,"o":"m 1131 784 l 911 151 l 908 151 l 708 769 b 780 852 683 843 733 848 b 780 898 788 861 788 890 b 611 895 715 897 666 895 b 472 898 556 895 527 897 b 472 852 463 890 463 861 b 593 769 545 848 580 804 l 613 705 b 620 666 618 688 620 679 b 611 613 620 648 616 630 l 436 154 l 433 154 l 225 794 b 294 852 208 843 245 850 b 294 898 302 861 302 890 b 137 895 248 897 191 895 b 8 898 81 895 63 897 b 8 852 0 890 0 861 b 111 772 70 848 86 845 l 363 16 b 406 -16 370 -5 386 -16 b 445 16 426 -16 438 -2 l 638 513 b 658 548 644 530 651 548 b 677 509 663 548 670 527 l 840 16 b 883 -16 848 -6 865 -16 b 920 15 902 -16 913 -5 l 1194 768 b 1313 852 1211 816 1237 848 b 1313 898 1322 861 1322 890 b 1193 895 1262 897 1229 895 b 1040 898 1156 895 1095 897 b 1040 852 1031 890 1031 861 b 1131 784 1097 848 1151 843 "},"ï":{"x_min":-5.828125,"x_max":359.453125,"ha":376,"o":"m 251 169 l 251 445 b 256 604 251 515 256 604 b 238 613 256 609 249 613 b 48 573 198 598 144 586 b 51 534 45 565 48 543 b 141 440 126 526 141 519 l 141 169 b 41 43 141 54 126 50 b 41 -2 33 34 33 5 b 196 0 99 -1 135 0 b 351 -2 256 0 291 -1 b 351 43 359 5 359 34 b 251 169 266 48 251 54 m 228 798 b 294 733 228 762 258 733 b 359 798 330 733 359 762 b 294 865 359 834 330 865 b 228 798 258 865 228 834 m -5 798 b 59 733 -5 762 23 733 b 124 798 95 733 124 762 b 59 865 124 834 95 865 b -5 798 23 865 -5 834 "},">":{"x_min":53.984375,"x_max":619.09375,"ha":676,"o":"m 508 328 l 68 168 b 68 99 50 149 48 107 l 609 294 b 609 361 622 318 622 340 l 68 559 b 68 489 48 550 50 508 l 508 328 "},"v":{"x_min":9.03125,"x_max":682.640625,"ha":690,"o":"m 451 552 b 504 459 526 547 533 529 l 393 187 b 341 191 369 131 362 133 l 240 459 b 284 552 216 526 197 544 b 284 598 293 561 293 590 b 137 595 233 597 194 595 b 15 598 88 595 66 597 b 15 552 6 590 6 561 b 126 451 94 543 98 520 l 304 12 b 338 -16 312 -8 320 -16 b 372 15 352 -16 361 -8 l 556 450 b 676 552 583 509 598 545 b 676 598 684 561 684 590 b 584 595 645 597 620 595 b 451 598 533 595 502 597 b 451 552 443 590 443 561 "},"û":{"x_min":29.75,"x_max":713.421875,"ha":729,"o":"m 301 -14 b 480 69 355 -14 411 13 b 497 67 486 74 497 77 b 512 -14 497 34 512 -14 b 539 -14 522 -18 528 -18 b 707 41 569 10 622 31 b 707 78 715 49 715 70 b 605 180 618 85 605 112 l 605 447 b 611 588 605 488 611 588 b 600 598 611 594 607 598 b 551 595 593 597 572 595 b 409 598 507 595 461 597 b 409 552 401 590 401 560 b 496 440 477 548 496 531 l 496 172 b 473 117 496 145 493 134 b 343 51 422 73 377 51 b 231 194 301 51 231 70 l 231 447 b 237 588 231 488 237 588 b 226 598 237 594 233 598 b 177 595 219 597 198 595 b 36 598 133 595 87 597 b 36 552 27 590 27 560 b 122 441 102 547 122 531 l 122 174 b 301 -14 122 78 163 -14 m 365 916 b 320 916 350 920 334 919 b 166 722 280 852 216 777 b 197 698 174 709 184 701 b 341 813 251 728 297 769 b 484 698 383 770 432 731 b 516 722 497 699 509 712 b 365 916 466 777 405 851 "},"Ò":{"x_min":51.390625,"x_max":925,"ha":975,"o":"m 925 456 b 477 913 925 731 720 913 b 51 430 229 913 51 702 b 486 -13 51 156 247 -13 b 925 456 751 -13 925 179 m 459 866 b 791 430 648 866 791 719 b 513 33 791 181 672 33 b 184 454 347 33 184 187 b 459 866 184 745 333 866 m 422 1137 b 316 1075 373 1120 341 1098 l 530 987 b 590 970 559 975 579 970 b 611 991 601 970 611 980 b 590 1020 611 1001 605 1009 l 422 1137 "},"&":{"x_min":60.046875,"x_max":928,"ha":979,"o":"m 401 568 b 348 721 365 636 348 689 b 453 853 348 812 417 853 b 542 748 510 853 542 811 b 401 568 542 698 490 626 m 585 130 l 625 79 b 785 -13 690 -10 742 -13 b 928 122 833 -13 896 25 b 898 136 919 129 914 136 b 793 61 871 82 839 61 b 686 148 771 61 729 89 l 636 218 b 760 419 690 297 722 353 b 918 546 823 533 832 540 b 918 591 926 554 926 583 b 801 589 890 590 848 589 b 669 591 754 589 697 590 b 669 546 661 583 661 554 b 712 437 744 541 765 534 b 606 259 689 393 656 333 b 436 504 542 346 461 461 l 430 515 b 638 748 546 582 638 672 b 460 898 638 836 557 898 b 246 718 321 898 246 800 b 316 522 246 665 265 611 b 60 216 133 419 60 326 b 326 -13 60 47 178 -13 b 585 130 444 -13 521 43 m 347 469 b 553 175 362 440 473 279 b 336 32 485 82 435 32 b 173 216 248 32 173 80 b 347 469 173 315 204 390 "},"Ð":{"x_min":11.109375,"x_max":913.890625,"ha":974,"o":"m 205 895 b 26 898 136 895 95 897 b 26 852 18 890 18 861 b 147 726 123 848 147 841 l 147 452 l 37 452 b 11 418 25 452 11 431 b 26 398 11 409 15 398 l 147 398 l 147 169 b 26 43 147 54 123 47 b 26 -2 18 34 18 5 b 206 0 94 -1 136 0 b 459 -2 258 0 316 -2 b 913 427 655 -2 913 86 b 434 898 913 686 701 898 b 205 895 345 898 259 895 m 265 115 l 265 398 l 387 398 b 416 434 404 398 416 419 b 400 452 416 441 412 452 l 265 452 l 265 783 b 381 851 265 831 313 851 b 780 394 681 851 780 608 b 416 44 780 113 612 44 b 265 115 280 44 265 70 "},"I":{"x_min":20.140625,"x_max":392.359375,"ha":413,"o":"m 265 169 l 265 726 b 386 852 265 841 288 848 b 386 898 394 861 394 890 b 205 895 318 897 276 895 b 26 898 136 895 95 897 b 26 852 18 890 18 861 b 147 726 123 848 147 841 l 147 169 b 26 43 147 54 123 47 b 26 -2 18 34 18 5 b 206 0 94 -1 136 0 b 386 -2 276 0 316 -1 b 386 43 394 5 394 34 b 265 169 288 47 265 54 "},"G":{"x_min":44.5,"x_max":938.25,"ha":965,"o":"m 523 913 b 44 426 284 913 44 731 b 516 -13 44 186 237 -13 b 890 115 680 -13 795 34 b 868 154 875 127 868 138 l 868 309 b 932 376 868 358 891 372 b 932 426 940 384 940 418 b 808 423 890 425 863 423 b 636 426 754 423 701 425 b 636 376 627 418 627 384 b 750 309 711 369 750 365 l 750 102 b 548 36 702 58 623 36 b 170 454 301 36 170 270 b 504 862 170 697 316 862 b 809 629 705 862 773 748 l 857 637 b 826 851 844 695 836 751 b 523 913 743 851 693 913 "},"`":{"x_min":133,"x_max":352.4375,"ha":544,"o":"m 246 970 b 226 973 241 972 233 973 b 135 941 178 973 146 950 l 133 926 l 291 775 b 331 747 313 754 323 747 b 352 762 342 747 352 755 b 344 795 352 772 351 781 l 246 970 "},"·":{"x_min":98.609375,"x_max":248.609375,"ha":347,"o":"m 173 283 b 248 358 212 283 248 319 b 173 433 248 397 212 433 b 98 358 134 433 98 397 b 173 283 98 319 134 283 "},"r":{"x_min":29.859375,"x_max":497.21875,"ha":517,"o":"m 138 440 l 138 169 b 36 43 138 54 122 48 b 36 -2 27 34 27 5 b 194 0 94 -1 138 0 b 362 -2 251 0 302 -1 b 362 43 370 5 370 34 b 248 169 265 50 248 54 l 248 362 b 281 455 248 398 265 430 b 345 523 297 477 329 523 b 375 513 355 523 366 522 b 431 473 388 500 402 473 b 497 543 465 473 497 508 b 413 609 497 569 472 609 b 259 494 348 609 291 548 b 247 493 251 479 247 486 b 254 604 247 537 254 604 b 236 613 254 609 247 613 b 45 573 197 598 141 586 b 48 534 43 565 43 543 b 138 440 123 527 138 516 "},"₤":{"x_min":23.859375,"x_max":591.921875,"ha":608,"o":"m 204 118 b 191 116 200 118 196 116 l 198 122 b 282 319 240 154 272 209 l 450 319 l 450 373 l 284 373 b 286 398 284 380 286 388 l 286 438 l 450 438 l 450 493 l 286 493 l 286 538 b 401 740 286 652 340 740 b 466 709 430 740 450 724 b 514 684 482 695 494 684 b 568 737 546 684 568 704 b 462 798 568 783 493 798 b 287 726 393 798 333 773 b 184 493 219 659 189 591 l 58 493 l 58 438 l 184 438 l 184 373 l 58 373 l 58 319 l 183 319 b 112 106 179 241 162 161 b 90 84 104 97 97 91 b 23 9 53 66 23 40 b 59 -23 23 -6 41 -23 b 115 27 84 -23 115 -8 b 173 63 115 41 128 63 b 276 27 209 63 241 47 b 408 -16 315 5 357 -16 b 591 99 505 -16 566 31 l 582 108 b 432 52 548 62 471 52 b 351 79 396 52 375 63 b 204 118 322 98 286 118 "},"¿":{"x_min":63.890625,"x_max":540.28125,"ha":604,"o":"m 404 536 b 330 609 404 576 370 609 b 256 536 290 609 256 576 b 330 462 256 495 290 462 b 404 536 370 462 404 495 m 445 -198 b 311 -273 445 -240 390 -273 b 179 -104 231 -273 179 -194 b 255 52 179 -38 200 1 b 352 276 344 134 352 216 l 352 340 b 330 354 352 350 341 354 b 306 340 319 354 306 350 l 306 279 b 287 177 306 245 305 212 b 215 108 275 154 247 131 b 63 -109 150 61 63 0 b 297 -319 63 -236 155 -319 b 469 -265 370 -319 429 -300 b 540 -140 511 -231 540 -193 b 483 -80 540 -91 505 -80 b 429 -129 456 -80 429 -97 b 437 -162 429 -147 431 -155 b 445 -198 443 -169 445 -177 "},"ý":{"x_min":20.140625,"x_max":710.421875,"ha":721,"o":"m 288 -222 b 345 -102 309 -184 327 -144 b 591 463 456 163 518 308 b 704 552 611 504 652 548 b 704 598 712 561 712 590 b 605 595 669 597 644 595 b 479 598 556 595 530 597 b 479 552 470 590 470 561 b 545 490 522 548 566 540 l 406 172 b 373 173 397 148 386 145 l 251 462 b 295 552 226 520 211 545 b 295 598 304 561 304 590 b 138 595 244 597 188 595 b 26 598 91 595 54 597 b 26 552 18 590 18 561 b 136 448 87 547 98 536 l 293 83 b 312 -47 305 54 326 -8 b 258 -175 297 -94 279 -131 b 188 -215 243 -202 223 -215 b 148 -211 169 -215 163 -211 b 87 -270 108 -211 87 -252 b 152 -322 87 -300 115 -322 b 287 -222 181 -322 237 -311 l 288 -222 m 436 931 l 331 766 b 315 727 320 748 315 743 b 334 709 315 718 325 709 b 376 736 344 709 355 715 l 536 887 l 531 902 b 455 934 500 933 465 934 b 436 931 448 934 440 933 "},"x":{"x_min":22.921875,"x_max":657.640625,"ha":681,"o":"m 252 497 b 293 552 218 550 231 544 b 293 598 301 561 301 590 b 152 595 241 597 194 595 b 33 598 111 595 84 597 b 33 552 25 590 25 561 b 158 468 80 548 118 525 l 279 291 b 280 270 281 284 287 279 l 163 120 b 29 43 105 45 77 45 b 29 -2 20 34 20 5 b 129 0 80 -1 79 0 b 245 -2 181 0 194 -1 b 245 43 254 5 254 34 b 215 98 208 47 184 55 l 302 225 b 327 227 312 238 315 241 l 408 116 b 390 43 459 45 434 50 b 390 -2 381 34 381 5 b 534 0 441 -1 484 0 b 651 -2 587 0 600 -1 b 651 43 659 5 659 34 b 512 130 606 47 572 44 l 387 306 b 387 327 379 318 383 322 l 504 476 b 638 552 555 541 587 548 b 638 598 647 561 647 590 b 537 595 604 597 581 595 b 420 598 494 595 472 597 b 420 552 412 590 412 561 b 454 495 466 545 488 544 l 363 369 b 337 372 358 362 351 352 l 252 497 "},"è":{"x_min":51.390625,"x_max":565.28125,"ha":621,"o":"m 536 129 b 363 54 484 76 444 54 b 212 154 313 54 255 83 b 168 344 184 200 168 263 l 537 341 b 563 365 554 341 563 350 b 329 606 563 481 522 606 b 51 280 208 606 51 491 b 116 75 51 202 70 127 b 329 -13 163 19 229 -13 b 565 106 434 -13 509 34 b 536 129 561 120 552 127 m 172 391 b 329 561 198 548 295 561 b 444 415 381 561 444 531 b 423 395 444 402 438 395 l 172 391 m 291 931 b 270 934 286 933 277 934 b 180 902 223 934 191 911 l 177 887 l 336 736 b 376 708 358 715 368 708 b 397 723 387 708 397 716 b 388 756 397 733 395 743 l 291 931 "},"º":{"x_min":54.171875,"x_max":431.9375,"ha":485,"o":"m 237 751 b 351 583 306 751 351 694 b 254 458 351 483 291 458 b 134 611 170 458 134 543 b 237 751 134 686 168 751 m 54 597 b 238 422 54 498 136 422 b 431 605 369 422 431 515 b 248 787 431 701 369 787 b 54 597 129 787 54 709 "},"Ø":{"x_min":50.875,"x_max":925.140625,"ha":975,"o":"m 732 701 b 791 430 769 631 791 541 b 513 33 791 181 672 33 b 282 147 428 33 344 72 l 732 701 m 459 866 b 694 758 552 866 634 830 l 243 204 b 184 454 206 269 184 354 b 459 866 184 745 332 866 m 149 -18 l 220 69 b 485 -13 293 15 385 -13 b 925 456 751 -13 925 179 b 797 781 925 590 876 702 l 870 872 b 821 913 866 891 847 913 l 748 825 b 477 913 672 881 577 913 b 50 430 228 913 50 702 b 170 113 50 297 95 190 l 99 26 b 149 -18 103 5 123 -18 "},"÷":{"x_min":91.671875,"x_max":640.28125,"ha":732,"o":"m 640 356 l 91 356 l 91 288 l 640 288 l 640 356 m 305 136 b 368 73 305 101 333 73 b 429 136 401 73 429 101 b 368 197 429 169 401 197 b 305 136 333 197 305 169 m 305 508 b 368 445 305 473 333 445 b 429 508 401 445 429 473 b 368 569 429 541 401 569 b 305 508 333 569 305 541 "},"h":{"x_min":18.75,"x_max":723.265625,"ha":739,"o":"m 231 395 b 255 455 231 426 244 442 b 425 537 308 506 369 537 b 498 487 452 537 481 517 b 515 380 512 459 515 421 l 515 169 b 429 42 515 55 501 49 b 429 -3 422 34 422 5 b 570 0 487 -1 515 0 b 718 -3 627 0 658 -1 b 718 42 725 5 725 34 b 625 169 640 49 625 55 l 625 376 b 587 562 625 452 619 519 b 472 609 563 592 520 609 b 244 496 402 609 329 591 b 230 496 238 491 230 477 l 231 809 b 237 955 231 899 237 955 b 219 969 237 965 231 969 b 25 931 184 955 80 935 b 33 890 22 920 25 898 b 122 776 105 885 122 892 l 122 169 b 25 42 122 53 105 48 b 25 -3 16 34 16 5 b 177 0 81 -1 118 0 b 313 -3 231 0 255 -1 b 313 42 322 5 322 34 b 231 169 244 48 231 53 l 231 395 "},".":{"x_min":79.171875,"x_max":226.390625,"ha":306,"o":"m 79 59 b 152 -13 79 19 112 -13 b 226 59 193 -13 226 19 b 152 133 226 100 193 133 b 79 59 112 133 79 100 "},"₱":{"x_min":29.765625,"x_max":600.609375,"ha":608,"o":"m 442 491 b 283 392 418 421 363 392 b 225 399 256 392 239 396 l 225 491 l 442 491 m 454 609 b 456 584 454 601 456 592 b 453 545 456 570 454 556 l 225 545 l 225 609 l 454 609 m 446 665 l 225 665 l 225 758 b 295 774 247 766 274 774 b 446 665 357 774 422 753 m 600 665 l 543 665 b 303 816 524 734 463 816 b 167 810 275 816 231 815 b 29 803 106 808 46 803 l 29 780 b 38 771 29 776 29 771 b 70 773 43 771 58 773 b 125 717 92 773 125 766 l 125 665 l 38 665 l 38 609 l 125 609 l 125 545 l 38 545 l 38 491 l 125 491 l 125 89 b 57 35 125 54 108 35 l 38 35 b 29 25 32 35 29 30 l 29 1 l 31 -1 b 178 1 31 -1 133 1 b 335 -1 226 1 335 -1 l 338 1 l 338 25 b 327 35 338 30 332 35 l 295 35 b 225 89 245 35 225 51 l 225 365 b 289 351 240 356 256 351 b 526 491 422 351 495 415 l 600 491 l 600 545 l 545 545 b 551 608 549 566 551 587 l 551 609 l 600 609 l 600 665 "},";":{"x_min":109.71875,"x_max":286.109375,"ha":356,"o":"m 194 131 b 120 63 151 131 120 102 b 181 2 120 19 156 6 b 231 -40 208 0 231 -8 b 109 -151 231 -69 181 -133 b 122 -185 109 -165 112 -175 b 286 -5 205 -169 286 -103 b 194 131 286 77 250 131 m 125 492 b 198 419 125 452 158 419 b 272 492 238 419 272 452 b 198 566 272 533 238 566 b 125 492 158 566 125 533 "},"f":{"x_min":30.5625,"x_max":548.609375,"ha":431,"o":"m 243 169 l 243 541 l 372 541 b 404 559 384 541 404 547 l 404 587 b 393 595 404 593 400 595 l 243 595 l 243 675 b 352 922 243 888 306 922 b 436 856 394 922 416 905 b 491 812 447 831 462 812 b 548 869 515 812 548 841 b 504 940 548 893 533 918 b 379 969 468 965 431 969 b 133 651 262 969 133 868 l 133 595 l 62 595 b 30 568 37 595 30 579 l 30 550 b 37 541 30 543 31 541 l 133 541 l 133 169 b 43 43 133 54 118 48 b 43 -2 34 34 34 5 b 188 0 101 -1 131 0 b 352 -2 252 0 293 -1 b 352 43 361 5 361 34 b 243 169 258 48 243 54 "},"A":{"x_min":3.46875,"x_max":957.640625,"ha":965,"o":"m 215 109 l 291 311 b 340 334 298 329 306 334 l 629 334 l 713 99 b 611 43 733 41 676 47 b 611 -2 602 34 602 5 b 793 0 662 -1 738 0 b 951 -2 850 0 900 -1 b 951 43 959 5 959 34 b 826 119 897 47 851 47 l 541 872 b 504 913 530 898 523 913 b 456 863 483 913 472 901 l 148 141 b 9 43 111 55 69 47 b 9 -2 1 34 1 5 b 133 0 61 -1 79 0 b 311 -2 190 0 259 -1 b 311 43 319 5 319 34 b 215 109 258 45 193 51 m 365 393 b 329 411 333 393 323 395 l 469 763 l 472 763 l 606 393 l 365 393 "},"6":{"x_min":58.328125,"x_max":562.5,"ha":611,"o":"m 176 399 b 300 440 223 437 275 440 b 454 241 429 440 454 306 b 334 31 454 96 398 31 b 166 301 251 31 166 76 b 176 399 166 328 169 363 m 188 449 b 483 768 223 570 306 702 b 468 802 483 783 479 795 b 179 623 334 763 252 707 b 58 305 98 528 58 409 b 320 -14 58 38 219 -14 b 562 265 493 -14 562 151 b 327 485 562 377 506 485 b 188 449 288 485 229 471 "},"O":{"x_min":51.390625,"x_max":925,"ha":975,"o":"m 925 456 b 477 913 925 731 720 913 b 51 430 229 913 51 702 b 486 -13 51 156 247 -13 b 925 456 751 -13 925 179 m 459 866 b 791 430 648 866 791 719 b 513 33 791 181 672 33 b 184 454 347 33 184 187 b 459 866 184 745 333 866 "},"n":{"x_min":29.859375,"x_max":726.046875,"ha":744,"o":"m 255 497 b 241 497 251 491 241 477 b 248 602 241 538 248 602 b 231 613 248 609 243 613 b 40 573 193 598 136 586 b 43 534 37 565 40 543 b 133 440 118 527 133 520 l 133 169 b 36 43 133 55 119 50 b 36 -2 27 34 27 5 b 188 0 93 -1 129 0 b 326 -2 243 0 268 -1 b 326 43 334 5 334 34 b 243 169 255 50 243 55 l 243 397 b 266 455 243 426 255 443 b 427 537 319 506 373 537 b 501 487 455 537 484 519 b 518 380 515 459 518 422 l 518 169 b 431 43 518 55 504 50 b 431 -2 425 34 425 5 b 573 0 490 -1 518 0 b 720 -2 630 0 661 -1 b 720 43 727 5 727 34 b 627 169 643 50 627 55 l 627 376 b 590 562 627 452 622 519 b 475 609 566 593 523 609 b 255 497 406 609 340 591 "},"3":{"x_min":62.5,"x_max":548.609375,"ha":611,"o":"m 287 757 b 398 643 345 757 398 725 b 204 458 398 579 322 476 l 209 417 b 266 419 231 419 250 419 b 431 247 341 419 431 396 b 269 32 431 72 315 32 b 175 86 202 32 190 62 b 118 119 162 104 144 119 b 62 73 90 119 62 94 b 252 -13 62 21 173 -13 b 548 265 409 -13 548 92 b 369 476 548 408 445 462 l 368 479 b 500 662 493 558 500 618 b 315 803 500 718 450 803 b 66 632 122 803 66 675 b 111 587 66 614 79 587 b 162 655 148 587 162 630 b 287 757 162 740 252 757 "},"9":{"x_min":43.0625,"x_max":547.21875,"ha":611,"o":"m 427 387 b 305 348 380 350 330 348 b 151 547 176 348 151 482 b 270 757 151 692 206 757 b 438 487 354 757 438 712 b 427 387 438 458 436 425 m 416 337 b 122 18 380 217 297 85 b 137 -14 122 3 126 -7 b 425 164 270 23 351 79 b 547 482 506 258 547 378 b 284 801 547 748 386 801 b 43 522 112 801 43 636 b 277 301 43 410 98 301 b 416 337 315 301 375 315 "},"l":{"x_min":25.6875,"x_max":347.921875,"ha":367,"o":"m 131 169 b 31 42 131 53 116 46 b 31 -3 23 34 23 5 b 187 0 90 -1 126 0 b 341 -3 247 0 281 -1 b 341 42 350 5 350 34 b 241 169 256 46 241 53 l 241 809 b 247 955 241 899 247 955 b 229 969 247 965 241 969 b 34 931 194 955 90 935 b 43 890 31 920 34 898 b 131 776 115 885 131 892 l 131 169 "},"¤":{"x_min":36.953125,"x_max":573.4375,"ha":611,"o":"m 303 156 b 456 208 360 156 410 173 l 520 137 l 570 190 l 498 251 b 549 400 531 294 549 344 b 497 550 549 458 531 508 l 573 611 l 519 668 l 455 591 b 303 643 410 626 360 643 b 155 594 249 643 200 628 l 91 665 l 39 609 l 111 552 b 57 400 75 511 57 459 b 111 248 57 342 75 291 l 36 188 l 93 133 l 153 206 b 303 156 198 173 248 156 m 141 401 b 306 584 141 500 209 584 b 465 400 392 584 465 504 b 303 215 465 301 401 215 b 141 401 205 215 141 299 "},"4":{"x_min":31.9375,"x_max":584.71875,"ha":611,"o":"m 565 274 l 454 274 l 454 501 b 434 544 454 529 452 544 b 373 520 413 544 388 531 b 359 493 361 513 359 502 l 359 274 l 112 274 l 462 787 b 455 802 466 794 463 802 l 419 802 b 398 788 409 802 402 794 l 34 272 b 31 268 33 270 31 269 b 87 212 34 248 47 212 l 359 212 l 359 105 b 254 43 359 44 309 47 b 254 -2 245 34 245 5 b 408 0 295 -1 348 0 b 541 -2 459 0 500 -1 b 541 43 550 5 550 34 b 454 105 476 47 454 43 l 454 212 l 547 212 b 584 254 565 212 584 238 b 565 274 584 266 579 274 "},"p":{"x_min":4.859375,"x_max":668.0625,"ha":721,"o":"m 231 510 b 218 515 226 505 218 503 b 223 603 218 565 223 603 b 205 613 223 609 216 613 b 18 573 166 598 113 585 b 20 534 15 565 18 542 b 111 440 95 527 111 519 l 111 -153 b 11 -279 111 -268 95 -275 b 11 -325 2 -287 2 -316 b 166 -322 69 -323 105 -322 b 334 -325 231 -322 275 -323 b 334 -279 343 -316 343 -287 b 220 -153 236 -273 220 -268 l 220 -3 b 240 6 220 15 225 12 b 361 -14 273 -7 316 -14 b 565 63 438 -14 508 9 b 668 326 630 127 668 213 b 422 609 668 473 563 609 b 231 510 370 609 294 574 m 243 465 b 383 545 286 509 341 545 b 548 288 472 545 548 445 b 352 33 548 174 508 33 b 254 62 327 33 279 40 b 220 145 225 87 220 94 l 220 403 b 243 465 220 433 225 445 "},"à":{"x_min":49.75,"x_max":631.6875,"ha":635,"o":"m 406 66 b 513 -13 415 37 438 -13 b 631 48 581 -13 631 41 b 613 72 631 58 619 72 b 570 50 605 72 599 50 b 515 168 516 50 515 104 l 515 375 b 305 609 515 572 406 609 b 76 455 191 609 76 530 b 124 406 76 422 92 406 b 185 452 165 406 185 434 b 181 477 185 462 184 472 b 178 505 180 481 178 490 b 294 563 178 548 241 563 b 406 383 341 563 406 540 b 398 366 406 373 402 368 l 278 337 b 49 136 145 304 49 230 b 224 -13 49 26 127 -13 b 376 44 288 -13 315 -2 l 403 66 l 406 66 m 406 323 l 406 138 b 387 102 406 120 398 111 b 265 43 351 73 303 43 b 165 141 195 43 165 98 b 296 294 165 204 194 266 l 406 323 m 271 931 b 251 934 266 933 258 934 b 160 902 203 934 171 911 l 158 887 l 316 736 b 356 708 338 715 348 708 b 377 723 367 708 377 716 b 369 756 377 733 376 743 l 271 931 "},"Ü":{"x_min":10.609375,"x_max":912,"ha":926,"o":"m 522 981 b 587 916 522 945 551 916 b 652 981 623 916 652 945 b 587 1047 652 1018 623 1047 b 522 981 551 1047 522 1018 m 322 981 b 387 916 322 945 351 916 b 452 981 423 916 452 945 b 387 1047 452 1018 423 1047 b 322 981 351 1047 322 1018 m 448 -13 b 802 409 734 -13 802 162 l 802 726 b 905 852 802 841 821 848 b 905 898 914 861 914 890 b 771 895 864 897 802 895 b 677 898 739 895 714 898 b 668 852 651 898 647 868 b 734 726 716 843 734 818 l 734 384 b 479 43 734 229 712 43 b 314 112 412 43 354 72 b 241 373 240 186 241 283 l 241 726 b 307 852 241 813 264 845 b 301 898 319 855 319 898 b 183 895 266 897 240 895 b 16 898 129 895 68 897 b 16 852 8 890 8 861 b 123 726 100 848 123 841 l 123 327 b 448 -13 123 44 325 -13 "},"ó":{"x_min":56.9375,"x_max":643.0625,"ha":700,"o":"m 336 563 b 523 252 455 563 523 456 b 373 31 523 69 438 31 b 176 316 229 31 176 209 b 336 563 176 437 219 563 m 56 284 b 348 -13 56 143 152 -13 b 643 297 555 -13 643 158 b 351 609 643 441 566 609 b 56 284 163 609 56 461 m 375 931 l 269 766 b 254 727 258 748 254 743 b 273 709 254 718 263 709 b 315 736 283 709 294 715 l 475 887 l 470 902 b 394 934 438 933 402 934 b 375 931 387 934 379 933 "}}}
